<svg width="32" height="33" viewBox="0 0 32 33" fill="none" xmlns="http://www.w3.org/2000/svg">
<g clip-path="url(#clip0_2641_32219)">
<path d="M6.5 27.4736H7.5V29.9736H6.5V27.4736Z" fill="#131542"/>
<path d="M15.5 10.7236H15.25V10.9736V12.9736V13.2236H15.5H16.5H16.75V12.9736V10.9736V10.7236H16.5H15.5ZM15 13.7236C14.8621 13.7236 14.75 13.6116 14.75 13.4736V10.4736C14.75 10.3357 14.8621 10.2236 15 10.2236H17C17.1379 10.2236 17.25 10.3357 17.25 10.4736V13.4736C17.25 13.6116 17.1379 13.7236 17 13.7236H15Z" fill="#131542" stroke="#131542" stroke-width="0.5"/>
<path d="M15.5 7.97363H16.5V8.97363H15.5V7.97363Z" fill="#131542"/>
<path d="M31 22.9736H30.5V21.4736C30.5 21.1971 30.276 20.9736 30 20.9736H23.5V13.9736C23.5 13.1466 22.827 12.4736 22 12.4736C21.173 12.4736 20.5 13.1466 20.5 13.9736V16.9736H19.5V5.97363C19.5 5.03863 19.136 4.15963 18.475 3.49863C17.9335 2.95663 17.2445 2.61863 16.5 2.51263V0.973633H15.5V2.51313C13.8065 2.75713 12.5 4.21363 12.5 5.97363V16.9736H11.5V13.9736C11.5 13.1466 10.827 12.4736 10 12.4736C9.173 12.4736 8.5 13.1466 8.5 13.9736V20.9736H2C1.724 20.9736 1.5 21.1971 1.5 21.4736V22.9736H1C0.724 22.9736 0.5 23.1971 0.5 23.4736V25.4736V31.4736C0.5 31.7501 0.724 31.9736 1 31.9736H3C3.276 31.9736 3.5 31.7501 3.5 31.4736V25.9736H4.5V31.4736C4.5 31.7501 4.724 31.9736 5 31.9736H27C27.276 31.9736 27.5 31.7501 27.5 31.4736V25.9736H28.5V31.4736C28.5 31.7501 28.724 31.9736 29 31.9736H31C31.276 31.9736 31.5 31.7501 31.5 31.4736V25.4736V23.4736C31.5 23.1971 31.276 22.9736 31 22.9736ZM16.5 30.9736H15.5V28.4736H16.5V30.9736ZM17 27.4736H15C14.724 27.4736 14.5 27.6971 14.5 27.9736V30.9736H13.5V25.9736H18.5V30.9736H17.5V27.9736C17.5 27.6971 17.276 27.4736 17 27.4736ZM20.5 23.9736V24.9736H11.5V23.9736H20.5ZM14.1175 22.9736L16 22.0321L17.8825 22.9736H14.1175ZM10.5 25.4736V30.9736H9.5V16.9736H10.5V25.4736ZM11.5 25.9736H12.5V30.9736H11.5V25.9736ZM19.5 25.9736H20.5V30.9736H19.5V25.9736ZM21.5 25.4736V16.9736H22.5V30.9736H21.5V25.4736ZM23.5 23.9736H30.5V24.9736H23.5V23.9736ZM29.5 21.9736V22.9736H23.5V21.9736H29.5ZM22 13.4736C22.2755 13.4736 22.5 13.6981 22.5 13.9736V15.9736H21.5V13.9736C21.5 13.6981 21.7245 13.4736 22 13.4736ZM13.5 7.97363V6.97363H18.5V7.97363H17.5V8.97363H18.5V14.9736H13.5V8.97363H14.5V7.97363H13.5ZM16 3.47363C16.668 3.47363 17.296 3.73363 17.768 4.20563C18.24 4.67763 18.5 5.30563 18.5 5.97363H13.5C13.5 4.59513 14.6215 3.47363 16 3.47363ZM13.5 15.9736H18.5V16.9736H13.5V15.9736ZM20.5 17.9736V22.9736H20.118L16.2235 21.0256C16.083 20.9551 15.917 20.9551 15.776 21.0256L11.882 22.9736H11.5V17.9736H20.5ZM10 13.4736C10.2755 13.4736 10.5 13.6981 10.5 13.9736V15.9736H9.5V13.9736C9.5 13.6981 9.7245 13.4736 10 13.4736ZM2.5 21.9736H8.5V22.9736H2.5V21.9736ZM1.5 23.9736H8.5V24.9736H1.5V23.9736ZM2.5 30.9736H1.5V25.9736H2.5V30.9736ZM5.5 25.9736H8.5V30.9736H5.5V25.9736ZM26.5 30.9736H23.5V25.9736H26.5V30.9736ZM29.5 30.9736V25.9736H30.5V30.9736H29.5Z" fill="#131542"/>
<path d="M24.5 27.4736H25.5V29.9736H24.5V27.4736Z" fill="#131542"/>
<path d="M14 18.9736H18V19.9736H14V18.9736Z" fill="#131542"/>
</g>
<defs>
<clipPath id="clip0_2641_32219">
<rect width="32" height="32" fill="white" transform="translate(0 0.473633)"/>
</clipPath>
</defs>
</svg>
