<svg width="32" height="32" viewBox="0 0 32 32" fill="none" xmlns="http://www.w3.org/2000/svg">
<path d="M9.98596 1.33301C10.5169 1.33301 11.0258 1.54549 11.3991 1.92306L14.6654 5.22657V3.66634C14.6654 2.37768 15.71 1.33301 16.9987 1.33301H21.6654C22.954 1.33301 23.9987 2.37768 23.9987 3.66634V7.33301H25.8286C26.1126 7.33301 26.3831 7.45371 26.5728 7.665C26.7625 7.87629 26.8534 8.15824 26.8229 8.44053L24.8529 26.6556C24.6882 28.1787 23.4023 29.333 21.8703 29.333H10.1273C8.59556 29.333 7.30983 28.1791 7.14474 26.6564L5.16989 8.44079C5.13928 8.15847 5.23015 7.87644 5.41983 7.66509C5.6095 7.45375 5.88009 7.33301 6.16407 7.33301H7.9987V3.32027C7.9987 2.22274 8.88843 1.33301 9.98596 1.33301ZM21.9987 7.33301V3.66634C21.9987 3.48225 21.8495 3.33301 21.6654 3.33301H16.9987C16.8146 3.33301 16.6654 3.48225 16.6654 3.66634V7.33301H21.9987ZM9.9987 3.35127V7.33301H13.9355L9.9987 3.35127ZM9.13309 26.4408C9.18812 26.9484 9.61669 27.333 10.1273 27.333H21.8703C22.381 27.333 22.8096 26.9482 22.8645 26.4405L24.7147 9.33301H7.27834L9.13309 26.4408ZM15.7217 13.8789C15.8537 13.6816 16.1438 13.6816 16.2758 13.8789L17.1675 15.212C17.4746 15.671 18.0957 15.7942 18.5547 15.4871C19.0138 15.18 19.1369 14.5589 18.8299 14.0999L17.9381 12.7668C17.014 11.3856 14.9834 11.3856 14.0593 12.7668L13.1675 14.0999C12.8605 14.5589 12.9836 15.18 13.4427 15.4871C13.9017 15.7942 14.5228 15.671 14.8299 15.212L15.7217 13.8789ZM12.8465 16.7984C13.3201 17.0826 13.4737 17.6968 13.1895 18.1704L12.704 18.9796C12.4374 19.4239 12.7575 19.9893 13.2757 19.9893H14.332C14.8843 19.9893 15.332 20.437 15.332 20.9893C15.332 21.5415 14.8843 21.9893 14.332 21.9893H13.2757C11.2029 21.9893 9.9226 19.728 10.989 17.9506L11.4745 17.1414C11.7587 16.6678 12.373 16.5143 12.8465 16.7984ZM18.8106 18.1698C18.5268 17.6961 18.6808 17.0819 19.1546 16.7981C19.6284 16.5143 20.2425 16.6682 20.5263 17.142L21.0117 17.9522C22.0765 19.7296 20.796 21.9893 18.7241 21.9893H17.6654C17.1131 21.9893 16.6654 21.5415 16.6654 20.9893C16.6654 20.437 17.1131 19.9893 17.6654 19.9893H18.7241C19.2421 19.9893 19.5622 19.4243 19.296 18.98L18.8106 18.1698Z" fill="#131542"/>
</svg>
