<svg width="32" height="32" viewBox="0 0 32 32" fill="none" xmlns="http://www.w3.org/2000/svg">
<path d="M5.82151 2.00098C4.20455 2.00098 2.87851 3.28246 2.82326 4.89847L2.07112 26.8985C2.01314 28.5945 3.37234 30.001 5.06937 30.001H8.93028C10.6273 30.001 11.9865 28.5945 11.9285 26.8985L11.1764 4.89847C11.1211 3.28246 9.79511 2.00098 8.17815 2.00098H5.82151ZM4.82209 4.96681C4.84051 4.42814 5.28252 4.00098 5.82151 4.00098H8.17815C8.71713 4.00098 9.15915 4.42814 9.17756 4.96681L9.9297 26.9668C9.94903 27.5322 9.49596 28.001 8.93028 28.001H5.06937C4.50369 28.001 4.05063 27.5322 4.06996 26.9668L4.82209 4.96681ZM11.5761 30.001H26.4998C28.4328 30.001 29.9998 28.434 29.9998 26.501V7.00098C29.9998 6.59651 29.7562 6.23188 29.3825 6.0771C29.0088 5.92231 28.5787 6.00787 28.2927 6.29387L20.9998 13.5868V7.00098C20.9998 6.59651 20.7562 6.23188 20.3825 6.0771C20.0088 5.92231 19.5787 6.00787 19.2927 6.29387L12.4583 13.1283L12.5518 15.8632L18.9998 9.41519V16.001C18.9998 16.4054 19.2435 16.7701 19.6171 16.9249C19.9908 17.0796 20.4209 16.9941 20.7069 16.7081L27.9998 9.41519V26.501C27.9998 27.3294 27.3282 28.001 26.4998 28.001H25.9998V20.501C25.9998 19.6725 25.3282 19.001 24.4998 19.001H16.4998C15.6714 19.001 14.9998 19.6726 14.9998 20.501V28.001H12.8045C12.6023 28.7859 12.1672 29.4792 11.5761 30.001ZM16.9998 28.001V21.001H23.9998V28.001H16.9998Z" fill="#131542"/>
</svg>
