<svg width="15" height="15" viewBox="0 0 15 15" fill="none" xmlns="http://www.w3.org/2000/svg">
<path d="M12.208 0.130859C13.678 0.130859 14.8697 1.32257 14.8697 2.79262V12.2112C14.8697 13.6812 13.678 14.8729 12.208 14.8729H2.78945C1.3194 14.8729 0.127686 13.6812 0.127686 12.2112V2.79262C0.127686 1.32257 1.3194 0.130859 2.78945 0.130859H12.208ZM13.6412 4.63538H1.35619V12.2112C1.35619 13.0027 1.99788 13.6444 2.78945 13.6444H12.208C12.9995 13.6444 13.6412 13.0027 13.6412 12.2112V4.63538ZM4.01795 9.5494C4.58335 9.5494 5.0417 10.0077 5.0417 10.5732C5.0417 11.1386 4.58335 11.5969 4.01795 11.5969C3.45255 11.5969 2.9942 11.1386 2.9942 10.5732C2.9942 10.0077 3.45255 9.5494 4.01795 9.5494ZM7.49871 9.5494C8.06412 9.5494 8.52247 10.0077 8.52247 10.5732C8.52247 11.1386 8.06412 11.5969 7.49871 11.5969C6.93331 11.5969 6.47496 11.1386 6.47496 10.5732C6.47496 10.0077 6.93331 9.5494 7.49871 9.5494ZM4.01795 6.27338C4.58335 6.27338 5.0417 6.73173 5.0417 7.29714C5.0417 7.86254 4.58335 8.32089 4.01795 8.32089C3.45255 8.32089 2.9942 7.86254 2.9942 7.29714C2.9942 6.73173 3.45255 6.27338 4.01795 6.27338ZM7.49871 6.27338C8.06412 6.27338 8.52247 6.73173 8.52247 7.29714C8.52247 7.86254 8.06412 8.32089 7.49871 8.32089C6.93331 8.32089 6.47496 7.86254 6.47496 7.29714C6.47496 6.73173 6.93331 6.27338 7.49871 6.27338ZM10.9795 6.27338C11.5449 6.27338 12.0032 6.73173 12.0032 7.29714C12.0032 7.86254 11.5449 8.32089 10.9795 8.32089C10.4141 8.32089 9.95572 7.86254 9.95572 7.29714C9.95572 6.73173 10.4141 6.27338 10.9795 6.27338ZM12.208 1.35936H2.78945C1.99788 1.35936 1.35619 2.00105 1.35619 2.79262V3.40687H13.6412V2.79262C13.6412 2.00105 12.9995 1.35936 12.208 1.35936Z" fill="white"/>
</svg>
