<svg xmlns="http://www.w3.org/2000/svg" viewBox="0 0 511.91 362"><defs><style>.cls-1{fill:#004a78}</style></defs><g id="Laag_2" data-name="Laag 2"><g id="Laag_1-2" data-name="Laag 1"><path class="cls-1" d="M102.19 187.47c-7.13 3.16-18.67 8-40.29 8C16.37 195.45 0 168 0 120.75 0 82.55 11.75 51.5 58.55 51.5c18.67 0 32.31 3.14 42 6.29l1.26 35h-6.12c-.84-10.69-12.38-31.26-35-31.26-30.84 0-35.88 32.94-35.88 59.18 0 33.15 11.55 62.95 40.71 62.95 19.93 0 30.22-6.3 36.72-10.7zm11.33.63c14.7 0 17.84-3.14 17.84-19.51V78.36c0-16.37-3.14-19.52-17.84-19.52V53.6h98.84l1.26 30.4h-6.09c-.84-11.32-3.56-20.77-27.07-20.77H167c-10.28 0-12.59 3.36-12.59 15.11v37.16h27.49c13.64 0 15.74-2.94 15.74-16.79h5.66v43.44h-5.66c0-12.59-2.1-17-15.74-17h-27.46v43.44c0 14.06 1.68 15.11 12.59 15.11h19.31c18 0 23.92-7.56 24.55-20.78H217l-1.26 30.42H113.52zm116.48 0c14.69 0 17.84-3.14 17.84-19.51V78.36c0-16.37-3.15-19.52-17.84-19.52V53.6h59.39c26.61 0 48.24 9.4 48.24 38.4 0 37.35-33.15 39.45-59 39.45h-7.73v37.14c0 16.37 3.15 19.51 17.84 19.51v5.24H230zm40.92-66.31h7.35c17.83 0 35.46-1.25 35.46-29.79 0-24.77-12-28.75-30-28.75-11.12 0-12.8 2.52-12.8 15.11z"/><path d="M510.59 240.37c10-57.73-38.31-108-95.23-108.18-56.92.12-105.39 50.41-95.24 108.18 8.18-46.3 47.63-82.24 95.24-82.29 47.61.14 86.92 36 95.23 82.29z" fill="#f7a600"/><path class="cls-1" d="M502 0c-17.69 111.39-179.22 66-190.47 190.47C353.7 83.9 525.83 128.72 502 0z"/><path d="M426.89 47A28.85 28.85 0 1 1 398 18.17 28.85 28.85 0 0 1 426.89 47z" fill="#e84e0f"/><path class="cls-1" d="M20.06 264.74a18 18 0 0 1 7.5 2v4.15a12 12 0 0 0-7.5-2.82c-3.88 0-5.63 2.29-5.63 15.31 0 11.59 1.22 15.31 5.63 15.31a10.56 10.56 0 0 0 7.5-2.87V300a15 15 0 0 1-7.5 2c-6.06 0-9-2.55-9-18.61-.06-16.39 3.37-18.65 9-18.65zm21.2 37.48c-5.95 0-8.34-3.51-8.34-13.83s2.39-13.82 8.34-13.82 8.35 3.51 8.35 13.82-2.39 13.83-8.35 13.83zm-5.15-13.83c0 8.08 1 10.85 5.15 10.85s5.16-2.77 5.16-10.85-1-10.84-5.16-10.84-5.15 2.76-5.15 10.84zm26.3-10.89c1.54-1.7 3.3-2.93 5.16-2.93 4.3 0 5 3.35 5 8.08v19h-3.2v-20.33c0-2.5-.85-3.61-2.39-3.61-1 0-2 .53-4 2.82L59.86 284v17.7h-3.19v-19.15a42.24 42.24 0 0 0-.53-7.45h3.29c.06.75.27 3.19.38 5.32zm28.7-2.4v3h-6.38v23.55h-3.19v-23.52h-3.41v-3h3.41V272c0-5.9.74-7.28 5.1-7.28a31.91 31.91 0 0 1 4.47.32v3s-2.13-.22-3.73-.22c-2.23 0-2.65.38-2.65 4.15v3.08zm19.13 21.53v3.72a18.88 18.88 0 0 1-7.13 1.71c-4.89 0-8.13-2.08-8.13-13.67 0-10.31 2.5-13.82 8.61-13.82 4.89 0 7.23 2.29 7.23 8.51v5.31H98.17c0 8.93 1.75 10.53 4.94 10.53a12.24 12.24 0 0 0 7.13-2.29zm-6.65-19.08c-3.77 0-5.1 2.07-5.37 7.92h9.47v-2.39c0-4.08-.91-5.53-4.1-5.53zM131 265h3.19v29.24a42.12 42.12 0 0 0 .53 7.44h-3.3c-.1-.79-.21-2.28-.26-3.61l-1.16 1.22a8.24 8.24 0 0 1-5.53 2.93c-4.52 0-6.7-3.09-6.7-13.83s2.18-13.82 6.7-13.82a8.14 8.14 0 0 1 5.53 2.93l1 1.11zm-1.49 15.53c-1.81-2.08-3.35-2.88-4.62-2.88-2 0-3.89 1-3.89 10.74s1.86 10.74 3.89 10.74c1.27 0 2.81-.8 4.62-2.87l1.49-1.7v-12.33zm26.96 16.1v3.72a18.88 18.88 0 0 1-7.13 1.71c-4.89 0-8.13-2.08-8.13-13.67 0-10.31 2.5-13.82 8.61-13.82 4.89 0 7.23 2.29 7.23 8.51v5.31H144.4c0 8.93 1.75 10.53 4.94 10.53a12.24 12.24 0 0 0 7.13-2.29zm-6.65-19.08c-3.77 0-5.1 2.07-5.37 7.92h9.47v-2.39c0-4.08-.92-5.53-4.1-5.53zM168 301.68h-3.2v-19.13a42.24 42.24 0 0 0-.53-7.45h3.3c.05.75.26 3.09.37 5.21l2.87-3.4a6.08 6.08 0 0 1 4.41-2.34v4.15a4 4 0 0 0-3.88 1.43l-3.34 3.94zm25.88 0h-3.3c-.11-1-.21-2-.27-3.51l-1.38 1.39c-2.12 2.12-3.77 2.55-5.15 2.55-3.67 0-5.8-2.71-5.8-7.39 0-5.58 3.4-8.72 8-8.72h4.2v-3.29c0-3.67-1.27-5-4.14-5a11.29 11.29 0 0 0-6.75 2.44v-3.88a17.93 17.93 0 0 1 6.75-1.7c4.89 0 7.33 2.29 7.33 8.51v11.16a41.08 41.08 0 0 0 .51 7.44zm-3.73-12.91h-3.77c-3.88 0-5.31 2.71-5.31 6 0 3 1.27 4.31 3 4.31a6.52 6.52 0 0 0 4.36-2.18l1.75-1.75zM207.1 302c-4.35 0-5.1-1.38-5.1-7.28v-16.59h-3.4v-3h3.4V269h3.19v6.06h4.94v3h-4.94v16.54c0 3.77.43 4.14 2.66 4.14a8 8 0 0 0 2.28-.42v3a11.89 11.89 0 0 1-3.03.68zm12.81-.32h-3.19v-23.55h-2.92v-3h6.11zm-1.6-36a2.24 2.24 0 1 1-2.23 2.23 2.25 2.25 0 0 1 2.23-2.27zm17.54 36.54c-5.95 0-8.35-3.51-8.35-13.83s2.4-13.82 8.35-13.82 8.35 3.51 8.35 13.82-2.4 13.83-8.35 13.83zm-5.16-13.83c0 8.08 1 10.85 5.16 10.85s5.16-2.77 5.16-10.85-1-10.84-5.16-10.84-5.16 2.76-5.16 10.84zM257 277.5c1.54-1.7 3.3-2.93 5.16-2.93 4.3 0 5 3.35 5 8.08v19H264v-20.33c0-2.5-.85-3.61-2.39-3.61-1 0-2 .53-4 2.82l-3.16 3.47v17.7h-3.19v-19.15a42.24 42.24 0 0 0-.53-7.45H254c.06.75.27 3.19.38 5.32zm34.86 24.72c-5.95 0-8.35-3.51-8.35-13.83s2.4-13.82 8.35-13.82 8.34 3.51 8.34 13.82-2.39 13.83-8.34 13.83zm-5.16-13.83c0 8.08 1 10.85 5.16 10.85s5.16-2.77 5.16-10.85-1-10.84-5.16-10.84-5.16 2.76-5.16 10.84zm31.52-13.29v3h-6.38v23.55h-3.19v-23.52h-3.41v-3h3.41V272c0-5.9.74-7.28 5.1-7.28a31.91 31.91 0 0 1 4.47.32v3s-2.13-.22-3.73-.22c-2.23 0-2.65.38-2.65 4.15v3.08zm28.96 23.5v3.08h-14.09V265h13.56v3.09h-10.37v12.76h9.84v3.08h-9.84v14.67zm16.95.69c-1.49 1.7-3.3 2.93-5.16 2.93-4.3 0-5-3.35-5-8.09v-19h3.19v20.36c0 2.5.85 3.62 2.4 3.62 1 0 2-.53 4-2.82l2.55-2.87V275.1h3.19v19.14a41.19 41.19 0 0 0 .53 7.44h-3.3c-.05-.69-.26-2.71-.37-4.73zm16.25 2.39h-3.19v-19.13a41.31 41.31 0 0 0-.53-7.45H380c.05.75.26 3.09.37 5.21l2.87-3.4a6.08 6.08 0 0 1 4.41-2.34v4.15a4 4 0 0 0-3.88 1.43l-3.35 3.94zm19.35.54c-6 0-8.35-3.51-8.35-13.83s2.39-13.82 8.35-13.82 8.35 3.51 8.35 13.82-2.4 13.83-8.35 13.83zm-5.16-13.83c0 8.08 1 10.85 5.16 10.85s5.15-2.77 5.15-10.85-1-10.84-5.15-10.84-5.16 2.76-5.16 10.84zm23.76 23.39h-3.2v-29.23a41.31 41.31 0 0 0-.53-7.45h3.3c.11.8.21 2.29.26 3.62l1.12-1.22c1.44-1.6 3.62-2.93 5.53-2.93 4.52 0 6.7 3.08 6.7 13.82s-2.18 13.83-6.7 13.83a8.18 8.18 0 0 1-5.53-2.93l-.95-1.12zm1.48-15.52c1.86 2.13 3.35 2.87 4.63 2.87 2 0 3.88-1 3.88-10.74s-1.86-10.74-3.88-10.74c-1.28 0-2.77.8-4.63 2.88l-1.48 1.7v12.33zm33.19.37v3.72a18.82 18.82 0 0 1-7.12 1.71c-4.89 0-8.14-2.08-8.14-13.67 0-10.31 2.5-13.82 8.61-13.82 4.89 0 7.23 2.29 7.23 8.51v5.31H441c0 8.93 1.75 10.53 5 10.53a12.23 12.23 0 0 0 7-2.29zm-6.65-19.08c-3.77 0-5.1 2.07-5.36 7.92h9.45v-2.39c.03-4.08-.87-5.53-4.06-5.53zm29.1 24.13h-3.3c-.1-1-.21-2-.26-3.51l-1.39 1.39c-2.12 2.12-3.77 2.55-5.15 2.55-3.67 0-5.8-2.71-5.8-7.39 0-5.58 3.41-8.72 8-8.72h4.2v-3.29c0-3.67-1.28-5-4.15-5a11.34 11.34 0 0 0-6.75 2.44v-3.88a18 18 0 0 1 6.75-1.7c4.9 0 7.34 2.29 7.34 8.51v11.16a42.12 42.12 0 0 0 .51 7.44zm-3.72-12.91H468c-3.87 0-5.31 2.71-5.31 6 0 3 1.27 4.31 3 4.31a6.5 6.5 0 0 0 4.31-2.18l1.76-1.75zm16.63-11.27c1.54-1.7 3.3-2.93 5.16-2.93 4.31 0 5 3.35 5 8.08v19h-3.19v-20.33c0-2.5-.85-3.61-2.39-3.61-1 0-2 .53-4 2.82l-3.13 3.47v17.7h-3.19v-19.15a42.24 42.24 0 0 0-.53-7.45h3.29c.06.75.27 3.19.37 5.32zM29.05 336.37c0 7-3.25 11.49-9.57 11.49h-4v13.6h-3.23v-36.68h7.23c6.32 0 9.57 4.63 9.57 11.59zm-3.25 0c0-5.31-1.7-8.5-6.32-8.5h-4v16.85h4c4.62 0 6.32-3.08 6.32-8.35zm12.54 25.09h-3.19v-19.13a42.24 42.24 0 0 0-.53-7.45h3.29c.06.75.27 3.09.38 5.21l2.87-3.4a6.06 6.06 0 0 1 4.41-2.34v4.15a4 4 0 0 0-3.88 1.44l-3.35 3.93zm19.34.54c-6 0-8.34-3.51-8.34-13.82s2.39-13.83 8.34-13.83S66 337.86 66 348.18 63.64 362 57.68 362zm-5.15-13.82c0 8.07 1 10.84 5.15 10.84s5.16-2.77 5.16-10.84-1-10.85-5.16-10.85-5.15 2.76-5.15 10.85zm24.71-10.9a8.14 8.14 0 0 1 5.52-2.93c4.52 0 6.7 3.09 6.7 13.83S87.28 362 82.76 362a8.24 8.24 0 0 1-5.52-2.93l-1.12-1.22c-.05 1.33-.16 2.82-.27 3.61h-3.29a42.12 42.12 0 0 0 .53-7.44v-29.24h3.19v13.61zm-1 17.06l1.49 1.7c1.81 2.08 3.35 2.87 4.62 2.87 2 0 3.88-1 3.88-10.73s-1.86-10.74-3.88-10.74c-1.27 0-2.76.79-4.62 2.87L76.28 342zm34.37 7.12h-3.3c-.1-1-.21-2-.26-3.5l-1.38 1.38c-2.13 2.12-3.78 2.55-5.16 2.55-3.67 0-5.8-2.71-5.8-7.39 0-5.58 3.41-8.72 8-8.72h4.2v-3.29c0-3.67-1.28-5-4.15-5a11.29 11.29 0 0 0-6.76 2.45v-3.88a17.78 17.78 0 0 1 6.75-1.71c4.89 0 7.34 2.29 7.34 8.51V354a42.12 42.12 0 0 0 .52 7.46zm-3.72-12.91h-3.77c-3.89 0-5.32 2.71-5.32 6 0 3 1.27 4.31 3 4.31a6.5 6.5 0 0 0 4.36-2.18l1.76-1.75zm16.95 13.18c-4.36 0-5.11-1.38-5.11-7.28v-16.54h-3.4v-3h3.4v-6.06h3.19v6.06h5v3h-5v16.54c0 3.77.43 4.14 2.66 4.14a8 8 0 0 0 2.29-.42v3a12 12 0 0 1-3.03.56zm12.8-.27h-3.18v-23.55h-2.93v-3h6.11zm-1.59-36a2.24 2.24 0 1 1-2.23 2.23 2.25 2.25 0 0 1 2.23-2.27zM152.59 362c-6 0-8.35-3.51-8.35-13.82s2.39-13.83 8.35-13.83 8.34 3.51 8.34 13.83-2.39 13.82-8.34 13.82zm-5.16-13.82c0 8.07 1 10.84 5.16 10.84s5.15-2.77 5.15-10.84-1-10.85-5.15-10.85-5.16 2.76-5.16 10.85zm26.3-10.9c1.55-1.7 3.3-2.93 5.16-2.93 4.31 0 5 3.35 5 8.08v19h-3.19V341.1c0-2.49-.85-3.61-2.39-3.61-1 0-2 .53-4 2.82l-3.09 3.45v17.7H168v-19.13a42.24 42.24 0 0 0-.53-7.45h3.3c.05.75.26 3.19.37 5.32z"/></g></g></svg>