<svg width="24" height="25" viewBox="0 0 24 25" fill="none" xmlns="http://www.w3.org/2000/svg">
<path d="M4.39705 5.05379L4.46967 4.96967C4.73594 4.7034 5.1526 4.6792 5.44621 4.89705L5.53033 4.96967L12 11.439L18.4697 4.96967C18.7626 4.67678 19.2374 4.67678 19.5303 4.96967C19.8232 5.26256 19.8232 5.73744 19.5303 6.03033L13.061 12.5L19.5303 18.9697C19.7966 19.2359 19.8208 19.6526 19.6029 19.9462L19.5303 20.0303C19.2641 20.2966 18.8474 20.3208 18.5538 20.1029L18.4697 20.0303L12 13.561L5.53033 20.0303C5.23744 20.3232 4.76256 20.3232 4.46967 20.0303C4.17678 19.7374 4.17678 19.2626 4.46967 18.9697L10.939 12.5L4.46967 6.03033C4.2034 5.76406 4.1792 5.3474 4.39705 5.05379L4.46967 4.96967L4.39705 5.05379Z" fill="white"/>
</svg>
