<svg width="32" height="32" viewBox="0 0 32 32" fill="none" xmlns="http://www.w3.org/2000/svg">
<path d="M15.9976 2.66406C17.6026 2.66406 19.1413 2.94757 20.5664 3.46722L18.9747 5.05902C18.026 4.80149 17.0279 4.66406 15.9976 4.66406C9.73686 4.66406 4.6615 9.73942 4.6615 16.0002C4.6615 22.261 9.73686 27.3363 15.9976 27.3363C22.2584 27.3363 27.3338 22.261 27.3338 16.0002C27.3338 14.9714 27.1967 13.9745 26.9399 13.027L28.5319 11.435C29.0507 12.8591 29.3338 14.3966 29.3338 16.0002C29.3338 23.3655 23.363 29.3363 15.9976 29.3363C8.63229 29.3363 2.6615 23.3655 2.6615 16.0002C2.6615 8.63485 8.63229 2.66406 15.9976 2.66406ZM15.9976 8.0002C16.6891 8.0002 17.3601 8.08794 18.0001 8.25288L18.0002 10.3425C17.3739 10.1208 16.6998 10.0002 15.9976 10.0002C12.6839 10.0002 9.9976 12.6865 9.9976 16.0002C9.9976 19.3139 12.6839 22.0002 15.9976 22.0002C19.3113 22.0002 21.9976 19.3139 21.9976 16.0002C21.9976 15.2989 21.8773 14.6258 21.6562 14.0002L23.7456 14.0002C23.9101 14.6394 23.9976 15.3096 23.9976 16.0002C23.9976 20.4185 20.4159 24.0002 15.9976 24.0002C11.5793 24.0002 7.9976 20.4185 7.9976 16.0002C7.9976 11.5819 11.5793 8.0002 15.9976 8.0002ZM18.6643 16.0002C18.6643 17.473 17.4704 18.6669 15.9976 18.6669C14.5248 18.6669 13.3309 17.473 13.3309 16.0002C13.3309 14.5274 14.5248 13.3335 15.9976 13.3335C16.3678 13.3335 16.7203 13.409 17.0408 13.5453L19.3335 11.2525L19.3334 7.00026C19.3334 6.73503 19.4387 6.48067 19.6263 6.29313L22.9595 2.95971C23.2455 2.6737 23.6756 2.58814 24.0493 2.74291C24.423 2.89769 24.6666 3.26233 24.6666 3.6668V7.3335L28.3336 7.33356C28.738 7.33357 29.1027 7.57722 29.2574 7.95089C29.4122 8.32457 29.3266 8.75468 29.0406 9.04068L25.7072 12.374C25.5197 12.5615 25.2653 12.6669 25.0001 12.6669L20.7476 12.6669L18.454 14.9605C18.5894 15.28 18.6643 15.6314 18.6643 16.0002ZM24.5859 10.6669L25.9193 9.33352L23.6666 9.33348C23.1143 9.33347 22.6666 8.88576 22.6666 8.33348V6.0811L21.3334 7.4144L21.3335 10.5883C21.3472 10.6006 21.3606 10.6133 21.3738 10.6264C21.387 10.6397 21.3998 10.6531 21.4121 10.6669L24.5859 10.6669Z" fill="#131542"/>
</svg>
