<svg width="32" height="33" viewBox="0 0 32 33" fill="none" xmlns="http://www.w3.org/2000/svg">
<path d="M2.11159 30.9645H29.884C30.2174 30.9645 30.4878 30.6942 30.4878 30.3608C30.4878 30.0273 30.2174 29.757 29.884 29.757H27.9574C27.9574 23.2407 27.9574 16.1026 27.9574 12.5459H28.5261C28.8595 12.5459 29.1299 12.2756 29.1299 11.9421C29.1299 11.6087 28.8595 11.3384 28.5261 11.3384C28.4607 11.3384 27.0997 11.3384 27.1617 11.3384V9.47544C27.1617 8.49217 26.3732 7.69345 25.3958 7.66872V5.85987C25.3958 4.86105 24.5833 4.04855 23.5845 4.04855H21.131V3.19095C21.131 2.52497 20.5895 1.9834 19.9235 1.9834H12.0721C11.4061 1.9834 10.8645 2.52497 10.8645 3.19095V4.04855H8.41141C7.41259 4.04855 6.60009 4.86105 6.60009 5.85987V7.66869C5.62253 7.6933 4.83387 8.49206 4.83387 9.47544V11.3384C4.7694 11.3384 3.40869 11.3384 3.46949 11.3384C3.13606 11.3384 2.86571 11.6087 2.86571 11.9421C2.86571 12.2756 3.13606 12.5459 3.46949 12.5459H4.03818V29.757H2.11159C1.77815 29.757 1.50781 30.0273 1.50781 30.3608C1.50781 30.6942 1.77815 30.9645 2.11159 30.9645ZM5.24573 23.2092H10.9194V25.4793H5.24573V23.2092ZM12.1269 29.757C12.1269 26.3898 12.1269 24.1612 12.1269 20.7941C12.1269 18.6597 13.8634 16.9233 15.9978 16.9233C18.1322 16.9233 19.8687 18.6597 19.8687 20.7941V29.757H12.1269ZM26.7499 25.4793H21.0762V23.2092H26.7499V25.4793ZM21.0762 29.757V26.6868H26.7499V29.757H21.0762ZM7.80764 5.85987C7.80764 5.52703 8.07857 5.2561 8.41141 5.2561H11.4683C11.8017 5.2561 12.0721 4.98576 12.0721 4.65233V3.19095H19.9235V4.65233C19.9235 4.98576 20.1938 5.2561 20.5273 5.2561H23.5845C23.9173 5.2561 24.1882 5.52703 24.1882 5.85987V7.66176H21.7848L21.7852 7.4778C21.7861 7.14437 21.5164 6.87343 21.1829 6.87255C21.1823 6.87255 21.182 6.87255 21.1815 6.87255C20.8486 6.87255 20.5786 7.14171 20.5777 7.47485L20.5772 7.66176H16.6022L16.6027 7.46335C16.6036 7.12992 16.3342 6.85869 16.0007 6.85781C16.0001 6.85781 15.9996 6.85781 15.999 6.85781C15.6664 6.85781 15.3961 7.12697 15.3952 7.45981L15.3946 7.66176H11.4193L11.42 7.44832C11.4208 7.11488 11.1514 6.84366 10.818 6.84277C10.8174 6.84277 10.8168 6.84277 10.8162 6.84277C10.4836 6.84277 10.2133 7.11194 10.2124 7.44478L10.2118 7.66176H7.80764V5.85987ZM6.04142 9.47544C6.04142 9.1426 6.31235 8.87167 6.64519 8.87167H25.3504C25.6832 8.87167 25.9542 9.1426 25.9542 9.47544V11.3384H6.04142V9.47544ZM7.3778 12.5459V13.2098C7.3778 13.5432 7.64814 13.8136 7.98157 13.8136C8.31501 13.8136 8.58535 13.5432 8.58535 13.2098V12.5459H12.4913V13.2098C12.4913 13.5432 12.7616 13.8136 13.0951 13.8136C13.4285 13.8136 13.6989 13.5432 13.6989 13.2098V12.5459H17.6045V13.2098C17.6045 13.5432 17.8749 13.8136 18.2083 13.8136C18.5417 13.8136 18.8121 13.5432 18.8121 13.2098V12.5459H22.7177V13.2098C22.7177 13.5432 22.9881 13.8136 23.3215 13.8136C23.6549 13.8136 23.9253 13.5432 23.9253 13.2098V12.5459C23.9873 12.5459 26.8119 12.5459 26.7499 12.5459V22.0017H21.0762V20.7941C21.0762 17.994 18.7979 15.7157 15.9978 15.7157C13.1977 15.7157 10.9194 17.994 10.9194 20.7941V22.0017H5.24573V12.5459C5.69603 12.5459 7.44135 12.5459 7.3778 12.5459ZM5.24573 26.6868H10.9194V29.757H5.24573V26.6868Z" fill="#131542"/>
<path d="M24.2182 18.2446C24.2182 18.4113 24.083 18.5465 23.9163 18.5465C23.7496 18.5465 23.6144 18.4113 23.6144 18.2446V16.7971C23.6144 16.6304 23.7496 16.4952 23.9163 16.4952C24.083 16.4952 24.2182 16.6304 24.2182 16.7971V18.2446Z" fill="#131542" stroke="#131542" stroke-width="0.603774"/>
<path d="M8.08034 18.8484C8.41377 18.8484 8.68411 18.5781 8.68411 18.2446V16.7971C8.68411 16.4637 8.41377 16.1934 8.08034 16.1934C7.7469 16.1934 7.47656 16.4637 7.47656 16.7971V18.2446C7.47656 18.5781 7.7469 18.8484 8.08034 18.8484Z" fill="#131542"/>
</svg>
