<svg width="32" height="32" viewBox="0 0 32 32" fill="none" xmlns="http://www.w3.org/2000/svg">
<path d="M6.99593 3.99316C5.33908 3.99316 3.99593 5.33631 3.99593 6.99316L3.99593 10.3362C3.99593 11.993 5.33907 13.3362 6.99593 13.3362H7.66585V18.2778C7.60358 18.3246 7.54384 18.3763 7.48717 18.4329L3.76423 22.1546C3.11315 22.8055 3.11309 23.861 3.7641 24.5119L7.48704 28.2345C8.13802 28.8854 9.19344 28.8852 9.84425 28.2341L13.5652 24.5116C13.6218 24.455 13.6735 24.3952 13.7203 24.333H18.6724V25.0046C18.6724 26.6615 20.0155 28.0046 21.6724 28.0046H24.9976C26.6544 28.0046 27.9976 26.6615 27.9976 25.0046V21.6657C27.9976 20.0088 26.6544 18.6657 24.9976 18.6657H21.6724C20.0155 18.6657 18.6724 20.0088 18.6724 21.6657V22.333H13.7198C13.6731 22.271 13.6215 22.2114 13.5651 22.155L9.84412 18.4333C9.78757 18.3767 9.72797 18.3251 9.66585 18.2783V13.3362H10.3386C11.9954 13.3362 13.3386 11.9931 13.3386 10.3362V6.99316C13.3386 5.33631 11.9955 3.99316 10.3386 3.99316H6.99593ZM5.99593 6.99316C5.99593 6.44088 6.44364 5.99316 6.99593 5.99316H10.3386C10.8909 5.99316 11.3386 6.44088 11.3386 6.99316V10.3362C11.3386 10.8885 10.8909 11.3362 10.3386 11.3362H6.99593C6.44365 11.3362 5.99593 10.8885 5.99593 10.3362L5.99593 6.99316ZM5.414 23.3334L8.66542 20.083L11.9151 23.3334L8.66542 26.5844L5.414 23.3334ZM21.6724 20.6657H24.9976C25.5499 20.6657 25.9976 21.1134 25.9976 21.6657V25.0046C25.9976 25.5569 25.5499 26.0046 24.9976 26.0046H21.6724C21.1201 26.0046 20.6724 25.5569 20.6724 25.0046V21.6657C20.6724 21.1134 21.1201 20.6657 21.6724 20.6657Z" fill="#131542"/>
</svg>
