<svg width="47" height="24" viewBox="0 0 47 24" fill="none" xmlns="http://www.w3.org/2000/svg">
<path d="M44 10.5C44.8284 10.5 45.5 11.1716 45.5 12C45.5 12.8284 44.8284 13.5 44 13.5L44 10.5ZM1.93934 13.0607C1.35355 12.4749 1.35355 11.5251 1.93934 10.9393L11.4853 1.39341C12.0711 0.80762 13.0208 0.807621 13.6066 1.39341C14.1924 1.97919 14.1924 2.92894 13.6066 3.51473L5.12132 12L13.6066 20.4853C14.1924 21.0711 14.1924 22.0208 13.6066 22.6066C13.0208 23.1924 12.0711 23.1924 11.4853 22.6066L1.93934 13.0607ZM44 13.5L3 13.5L3 10.5L44 10.5L44 13.5Z" fill="#E41F28"/>
</svg>
