<svg width="32" height="32" viewBox="0 0 32 32" fill="none" xmlns="http://www.w3.org/2000/svg">
<path d="M16.5008 2.44949C16.2011 2.23298 15.7964 2.23298 15.4968 2.44949C14.7623 2.98019 13.1111 3.94836 11.0441 4.78211C8.97547 5.61657 6.56172 6.28711 4.28585 6.28711C3.81247 6.28711 3.42871 6.67087 3.42871 7.14425V16.0037C3.42871 19.4634 5.37458 22.6792 7.81403 25.089C10.252 27.4973 13.331 29.2487 15.8517 29.6878L15.9988 29.7134L16.1459 29.6878C18.6665 29.2487 21.7455 27.4973 24.1835 25.089C26.623 22.6792 28.5689 19.4634 28.5689 16.0037V7.14425C28.5689 6.67087 28.1851 6.28711 27.7117 6.28711C25.4372 6.28711 23.0235 5.61659 20.9544 4.7821C18.887 3.94831 17.2352 2.98013 16.5008 2.44949ZM5.143 16.0037V7.97469C7.44565 7.83361 9.75145 7.15206 11.6854 6.37193C13.5007 5.63968 15.0381 4.80018 15.9988 4.18008C16.9597 4.80022 18.4977 5.63972 20.3132 6.37195C22.2473 7.152 24.553 7.83353 26.8546 7.97466V16.0037C26.8546 18.8274 25.2452 21.6306 22.9788 23.8694C20.764 26.0573 18.063 27.5646 15.9988 27.9716C13.9345 27.5646 11.2336 26.0573 9.01877 23.8694C6.75237 21.6306 5.143 18.8274 5.143 16.0037ZM22.5962 11.7602C22.9364 11.431 22.9453 10.8884 22.6161 10.5482C22.2869 10.208 21.7442 10.1991 21.4041 10.5283L13.1247 18.5406L10.5767 16.2243C10.2264 15.9059 9.68434 15.9317 9.3659 16.282C9.04747 16.6322 9.07328 17.1743 9.42356 17.4928L12.5664 20.3499C12.901 20.654 13.4142 20.646 13.7391 20.3316L22.5962 11.7602Z" fill="#131542"/>
</svg>
