<svg width="32" height="33" viewBox="0 0 32 33" fill="none" xmlns="http://www.w3.org/2000/svg">
<g clip-path="url(#clip0_2641_30542)">
<path d="M30.9333 20.7403H30.0875L29.5541 20.207C29.3541 20.007 29.0828 19.8947 28.8 19.8947C28.5172 19.8947 28.2459 20.007 28.0459 20.207L27.5125 20.7403H26.6667C26.4803 20.7409 26.2973 20.7904 26.1361 20.884C25.9749 20.9777 25.8411 21.112 25.7483 21.2736H24.5333C24.5333 20.9907 24.421 20.7194 24.2209 20.5194C24.0209 20.3193 23.7496 20.207 23.4667 20.207H22.4C22.4 19.9241 22.2876 19.6528 22.0876 19.4527C21.8875 19.2527 21.6162 19.1403 21.3333 19.1403H20.8V18.607C20.801 18.3096 20.7186 18.0179 20.5623 17.7649C20.4061 17.5119 20.1821 17.3078 19.9157 17.1755L19.7333 17.0848V14.8736C19.7321 14.5293 19.6197 14.1947 19.4128 13.9195C19.2058 13.6443 18.9155 13.4434 18.5851 13.3467L16.9067 4.9499C16.8601 4.7201 16.7263 4.51728 16.5333 4.38403V2.60697H17.0667C17.2081 2.60697 17.3438 2.55078 17.4438 2.45076C17.5438 2.35074 17.6 2.21508 17.6 2.07363C17.6 1.93218 17.5438 1.79653 17.4438 1.69651C17.3438 1.59649 17.2081 1.5403 17.0667 1.5403H16.5333V1.00697C16.5333 0.865517 16.4771 0.729862 16.3771 0.629843C16.2771 0.529823 16.1414 0.473633 16 0.473633C15.8586 0.473633 15.7229 0.529823 15.6229 0.629843C15.5229 0.729862 15.4667 0.865517 15.4667 1.00697V1.5403H14.9333C14.7919 1.5403 14.6562 1.59649 14.5562 1.69651C14.4562 1.79653 14.4 1.93218 14.4 2.07363C14.4 2.21508 14.4562 2.35074 14.5562 2.45076C14.6562 2.55078 14.7919 2.60697 14.9333 2.60697H15.4667V4.3835C15.2737 4.51675 15.1399 4.71957 15.0933 4.94937L13.4133 13.3467C13.0832 13.4437 12.7932 13.6447 12.5866 13.9199C12.38 14.195 12.2678 14.5295 12.2667 14.8736V17.0848L12.0843 17.1755C11.8179 17.3078 11.5939 17.5119 11.4377 17.7649C11.2814 18.0179 11.199 18.3096 11.2 18.607V19.1403H10.6667C10.3838 19.1403 10.1125 19.2527 9.91242 19.4527C9.71238 19.6528 9.6 19.9241 9.6 20.207H8.53333C8.25044 20.207 7.97913 20.3193 7.77909 20.5194C7.57905 20.7194 7.46667 20.9907 7.46667 21.2736H6.25173C6.15886 21.112 6.02511 20.9777 5.86392 20.884C5.70272 20.7904 5.51974 20.7409 5.33333 20.7403H4.48747L3.95413 20.207C3.7541 20.007 3.48284 19.8947 3.2 19.8947C2.91716 19.8947 2.6459 20.007 2.44587 20.207L1.91253 20.7403H1.06667C0.783769 20.7403 0.512458 20.8527 0.312419 21.0527C0.112381 21.2528 0 21.5241 0 21.807L0 31.407C0 31.6899 0.112381 31.9612 0.312419 32.1612C0.512458 32.3613 0.783769 32.4736 1.06667 32.4736H30.9333C31.2162 32.4736 31.4875 32.3613 31.6876 32.1612C31.8876 31.9612 32 31.6899 32 31.407V21.807C32 21.5241 31.8876 21.2528 31.6876 21.0527C31.4875 20.8527 31.2162 20.7403 30.9333 20.7403ZM26.1333 25.007V26.0736H5.86667V25.007H26.1333ZM6.4 27.1403H11.2V31.407H6.4V27.1403ZM12.2667 27.1403H15.4667V31.407H12.2667V27.1403ZM16.5333 27.1403H19.7333V31.407H16.5333V27.1403ZM20.8 27.1403H25.6V31.407H20.8V27.1403ZM25.6 22.3403V23.9403H24.5333V22.3403H25.6ZM23.4667 21.2736V23.9403H22.4V21.2736H23.4667ZM21.3333 23.9403H20.2667V20.207H21.3333V23.9403ZM16 5.8603L17.4827 13.2736H14.5173L16 5.8603ZM13.3333 14.8736C13.3333 14.7322 13.3895 14.5965 13.4895 14.4965C13.5896 14.3965 13.7252 14.3403 13.8667 14.3403H18.1333C18.2748 14.3403 18.4104 14.3965 18.5105 14.4965C18.6105 14.5965 18.6667 14.7322 18.6667 14.8736V16.5515L16.7152 15.5755C16.4929 15.465 16.248 15.4075 15.9997 15.4075C15.7515 15.4075 15.5066 15.465 15.2843 15.5755L13.3333 16.5515V14.8736ZM12.5616 18.127L15.7616 16.527C15.8357 16.4899 15.9174 16.4706 16.0003 16.4706C16.0831 16.4706 16.1648 16.4899 16.2389 16.527L19.4389 18.127C19.5281 18.1712 19.6031 18.2398 19.6551 18.3246C19.7072 18.4095 19.7343 18.5074 19.7333 18.607V19.2886C19.5717 19.3814 19.4374 19.5152 19.3437 19.6764C19.2501 19.8376 19.2006 20.0206 19.2 20.207V23.9403H12.8V20.207C12.7994 20.0206 12.7499 19.8376 12.6563 19.6764C12.5626 19.5152 12.4283 19.3814 12.2667 19.2886V18.607C12.2657 18.5073 12.2929 18.4094 12.3451 18.3245C12.3973 18.2396 12.4723 18.1712 12.5616 18.127ZM11.7333 20.207V23.9403H10.6667V20.207H11.7333ZM9.6 21.2736V23.9403H8.53333V21.2736H9.6ZM7.46667 23.9403H6.4V22.3403H7.46667V23.9403ZM2.13333 21.807C2.27477 21.8069 2.4104 21.7507 2.5104 21.6507L3.2 20.9611L3.8896 21.6507C3.9896 21.7507 4.12523 21.8069 4.26667 21.807H5.33333V24.0886C5.17171 24.1814 5.03736 24.3152 4.94375 24.4764C4.85014 24.6376 4.80056 24.8206 4.8 25.007V26.0736C4.80056 26.26 4.85014 26.443 4.94375 26.6042C5.03736 26.7654 5.17171 26.8992 5.33333 26.992V28.7403H1.06667V21.807H2.13333ZM1.06667 31.407V29.807H5.33333V31.407H1.06667ZM30.9333 31.407H26.6667V26.992C26.8283 26.8992 26.9626 26.7654 27.0563 26.6042C27.1499 26.443 27.1994 26.26 27.2 26.0736V25.007C27.1994 24.8206 27.1499 24.6376 27.0563 24.4764C26.9626 24.3152 26.8283 24.1814 26.6667 24.0886V21.807H27.7333C27.8748 21.8069 28.0104 21.7507 28.1104 21.6507L28.8 20.9611L29.4896 21.6507C29.5896 21.7507 29.7252 21.8069 29.8667 21.807H30.9333V31.407Z" fill="#131542"/>
<path d="M3.1974 27.674C3.33884 27.674 3.4745 27.6178 3.57452 27.5178C3.67454 27.4178 3.73073 27.2821 3.73073 27.1407V23.4074C3.73073 23.2659 3.67454 23.1303 3.57452 23.0302C3.4745 22.9302 3.33884 22.874 3.1974 22.874C3.05595 22.874 2.92029 22.9302 2.82027 23.0302C2.72025 23.1303 2.66406 23.2659 2.66406 23.4074V27.1407C2.66406 27.2821 2.72025 27.4178 2.82027 27.5178C2.92029 27.6178 3.05595 27.674 3.1974 27.674Z" fill="#131542"/>
<path d="M14.4005 22.874C14.542 22.874 14.6776 22.8178 14.7776 22.7177C14.8777 22.6177 14.9339 22.4821 14.9339 22.3406V19.674C14.9339 19.5325 14.8777 19.3969 14.7776 19.2968C14.6776 19.1968 14.542 19.1406 14.4005 19.1406C14.2591 19.1406 14.1234 19.1968 14.0234 19.2968C13.9234 19.3969 13.8672 19.5325 13.8672 19.674V22.3406C13.8672 22.4821 13.9234 22.6177 14.0234 22.7177C14.1234 22.8178 14.2591 22.874 14.4005 22.874Z" fill="#131542"/>
<path d="M17.6036 22.874C17.7451 22.874 17.8808 22.8178 17.9808 22.7177C18.0808 22.6177 18.137 22.4821 18.137 22.3406V19.674C18.137 19.5325 18.0808 19.3969 17.9808 19.2968C17.8808 19.1968 17.7451 19.1406 17.6036 19.1406C17.4622 19.1406 17.3265 19.1968 17.2265 19.2968C17.1265 19.3969 17.0703 19.5325 17.0703 19.674V22.3406C17.0703 22.4821 17.1265 22.6177 17.2265 22.7177C17.3265 22.8178 17.4622 22.874 17.6036 22.874Z" fill="#131542"/>
<path d="M28.799 22.874C28.6575 22.874 28.5219 22.9302 28.4218 23.0302C28.3218 23.1303 28.2656 23.2659 28.2656 23.4074V27.1407C28.2656 27.2821 28.3218 27.4178 28.4218 27.5178C28.5219 27.6178 28.6575 27.674 28.799 27.674C28.9404 27.674 29.0761 27.6178 29.1761 27.5178C29.2761 27.4178 29.3323 27.2821 29.3323 27.1407V23.4074C29.3323 23.2659 29.2761 23.1303 29.1761 23.0302C29.0761 22.9302 28.9404 22.874 28.799 22.874Z" fill="#131542"/>
</g>
<defs>
<clipPath id="clip0_2641_30542">
<rect width="32" height="32" fill="white" transform="translate(0 0.473633)"/>
</clipPath>
</defs>
</svg>
