<svg width="33" height="32" viewBox="0 0 33 32" fill="none" xmlns="http://www.w3.org/2000/svg">
<path d="M9.07376 29.1387C8.41225 29.6146 7.48975 29.1419 7.48975 28.3269L7.48975 8.33236C7.48975 5.93912 9.42985 3.99902 11.8231 3.99902L21.8209 3.99902C24.2142 3.99902 26.1543 5.93912 26.1543 8.33236L26.1543 28.3269C26.1543 29.1419 25.2318 29.6146 24.5702 29.1387L16.822 23.5641L9.07376 29.1387ZM24.1543 8.33236C24.1543 7.04369 23.1096 5.99902 21.8209 5.99902L11.8231 5.99902C10.5344 5.99902 9.48975 7.04369 9.48975 8.33236L9.48975 26.3755L16.238 21.5204C16.5869 21.2694 17.0571 21.2694 17.406 21.5204L24.1543 26.3755L24.1543 8.33236Z" fill="#131542"/>
</svg>
