<svg width="32" height="33" viewBox="0 0 32 33" fill="none" xmlns="http://www.w3.org/2000/svg">
<path d="M7.42717 11.0159C7.04603 8.50336 8.81925 6.24105 11.5302 5.41194C12.5286 5.1066 13.5923 5.63064 13.9585 6.60832L14.8277 8.92827C15.1137 9.69184 14.9076 10.5526 14.3067 11.1038L11.7217 13.4749C11.4628 13.7124 11.3479 14.0699 11.4183 14.414L11.4413 14.5185C11.4556 14.5809 11.4766 14.6691 11.5049 14.7795C11.5616 15.0001 11.6479 15.3102 11.7686 15.6795C12.0089 16.4141 12.392 17.402 12.962 18.3893C13.532 19.3766 14.1961 20.2023 14.7121 20.7777C14.9715 21.0669 15.197 21.2967 15.3596 21.4561C15.441 21.5358 15.507 21.5981 15.5539 21.6417L15.6341 21.715C15.8969 21.948 16.2628 22.0261 16.5978 21.9206L19.9438 20.8675C20.7216 20.6227 21.5701 20.8746 22.0883 21.5041L23.6713 23.4269C24.3301 24.2273 24.2527 25.402 23.4945 26.109C21.4202 28.0429 18.5683 28.439 16.5831 26.8439C14.6693 25.3061 12.417 23.0209 10.5355 19.7865C8.64962 16.5445 7.79578 13.446 7.42717 11.0159ZM13.5133 14.5455L15.6586 12.5777C16.8604 11.4753 17.2727 9.75376 16.7006 8.22662L15.8314 5.90667C15.0944 3.93944 12.9542 2.885 10.9453 3.49939C7.58006 4.52859 4.87798 7.54628 5.44979 11.3159C5.84912 13.9484 6.77275 17.2956 8.80675 20.7921C10.8325 24.2745 13.2605 26.7398 15.3304 28.4029C18.3053 30.7933 22.2786 29.9769 24.8583 27.5718C26.3894 26.1443 26.5458 23.772 25.2154 22.1558L23.6324 20.233C22.5959 18.9739 20.8989 18.4702 19.3433 18.9598L16.5664 19.8338C16.4596 19.724 16.3359 19.5928 16.201 19.4423C15.7447 18.9336 15.174 18.2207 14.694 17.3893C14.2141 16.558 13.882 15.7072 13.6695 15.0577C13.6067 14.8657 13.5549 14.6929 13.5133 14.5455Z" fill="#131542"/>
</svg>
