<svg width="32" height="32" viewBox="0 0 32 32" fill="none" xmlns="http://www.w3.org/2000/svg">
<path d="M11.6668 15.3337C11.1145 15.3337 10.6668 15.7814 10.6668 16.3337C10.6668 16.8859 11.1145 17.3337 11.6668 17.3337H20.3335C20.8858 17.3337 21.3335 16.8859 21.3335 16.3337C21.3335 15.7814 20.8858 15.3337 20.3335 15.3337H11.6668ZM11.6668 19.0003C11.1145 19.0003 10.6668 19.448 10.6668 20.0003C10.6668 20.5526 11.1145 21.0003 11.6668 21.0003H20.3335C20.8858 21.0003 21.3335 20.5526 21.3335 20.0003C21.3335 19.448 20.8858 19.0003 20.3335 19.0003H11.6668ZM11.6668 22.667C11.1145 22.667 10.6668 23.1147 10.6668 23.667C10.6668 24.2193 11.1145 24.667 11.6668 24.667H20.3335C20.8858 24.667 21.3335 24.2193 21.3335 23.667C21.3335 23.1147 20.8858 22.667 20.3335 22.667H11.6668ZM18.1135 3.44833L25.8855 11.219C26.3855 11.719 26.6668 12.3977 26.6668 13.1043V26.667C26.6668 28.139 25.4722 29.3337 24.0002 29.3337H8.00016C6.52816 29.3337 5.3335 28.139 5.3335 26.667V5.33366C5.3335 3.86166 6.52816 2.66699 8.00016 2.66699H16.2295C16.2667 2.66699 16.3029 2.67194 16.3391 2.67687C16.3652 2.68043 16.3912 2.68398 16.4175 2.68566C16.7042 2.70566 16.9868 2.76033 17.2495 2.86966C17.326 2.90229 17.3986 2.94429 17.4708 2.98609C17.493 2.99895 17.5152 3.01178 17.5375 3.02433C17.5581 3.03562 17.5795 3.046 17.6009 3.05642C17.6376 3.07429 17.6745 3.09225 17.7082 3.11499C17.8122 3.18566 17.9055 3.26966 18.0002 3.35499C18.0155 3.36859 18.032 3.38122 18.0485 3.39392C18.071 3.4111 18.0936 3.42839 18.1135 3.44833ZM24.0002 27.3337C24.3682 27.3337 24.6668 27.0337 24.6668 26.667V13.3337H18.6668C17.1948 13.3337 16.0002 12.139 16.0002 10.667V4.66699H8.00016C7.63216 4.66699 7.3335 4.96699 7.3335 5.33366V26.667C7.3335 27.0337 7.63216 27.3337 8.00016 27.3337H24.0002ZM23.1708 11.3337L18.0002 6.16166V10.667C18.0002 11.0337 18.2988 11.3337 18.6668 11.3337H23.1708Z" fill="#131542"/>
</svg>
