<svg width="32" height="33" viewBox="0 0 32 33" fill="none" xmlns="http://www.w3.org/2000/svg">
<g clip-path="url(#clip0_2641_34464)">
<path d="M31.531 31.1846H31.2168C31.0364 30.3833 30.4045 29.7517 29.6035 29.5713V16.8191C29.9275 16.8069 30.1873 16.5403 30.1873 16.2134V15.0581C30.1873 14.4722 29.7104 13.9954 29.1245 13.9954H27.8677V13.1709C27.8677 12.585 27.3909 12.1084 26.8042 12.1084L25.3657 12.1104V11.2839C25.3657 10.698 24.8889 10.2212 24.303 10.2212H23.2537V9.39673C23.2537 8.81079 22.7769 8.33423 22.1909 8.33423H21.8569V7.51685C21.8569 7.00366 21.491 6.57422 21.0063 6.47559V5.2002C21.0117 5.19849 21.0171 5.19727 21.0225 5.19556L24.7686 3.88867C25.0806 3.77979 25.2781 3.48486 25.2598 3.15479C25.2415 2.82446 25.0125 2.55322 24.6902 2.47974L20.9458 1.62451C20.7317 1.57568 20.5103 1.62622 20.3386 1.76318C20.167 1.8999 20.0684 2.10449 20.0684 2.32397V6.47583C19.5837 6.57422 19.2178 7.00366 19.2178 7.51709V8.33423H19.2112C18.6252 8.33423 18.1484 8.81104 18.1484 9.39697V10.2214H17.0344C16.4482 10.2214 15.9717 10.6982 15.9717 11.2842V12.1084H15.1658V11.2842C15.1658 10.7712 14.8003 10.342 14.3162 10.2429V9.39697C14.3162 8.81665 13.8484 8.34424 13.27 8.33521V7.51001C13.27 6.92407 12.7935 6.44727 12.2061 6.44727H12.2053V5.62305C12.2053 5.05786 11.7615 4.5957 11.2043 4.56348V3.73584C11.2043 3.1499 10.7275 2.6731 10.1416 2.6731H10.0845V1.84888C10.0845 1.26294 9.60767 0.786133 9.02173 0.786133H8.50806C7.92212 0.786133 7.44531 1.26294 7.44531 1.84888V2.6731H7.38818C6.80225 2.6731 6.32544 3.1499 6.32544 3.73584V4.56323C5.76807 4.59546 5.32446 5.05786 5.32446 5.62305V6.44727H5.32227C4.73633 6.44727 4.25952 6.92407 4.25952 7.51001V8.33521C3.6814 8.34424 3.21338 8.81665 3.21338 9.39697V10.2429C2.72949 10.3418 2.36401 10.7712 2.36401 11.2842V12.1409C1.90186 12.2561 1.55786 12.6738 1.55786 13.1711V14.0032C1.03076 14.0654 0.620606 14.5144 0.620606 15.0581V16.2136C0.620606 16.4905 0.807373 16.7241 1.06128 16.7964V19.1218C1.06128 19.3809 1.27124 19.5908 1.53027 19.5908C1.78931 19.5908 1.99927 19.3809 1.99927 19.1218V16.8201H11.4714V29.5188H1.99976V21.3118C1.99976 21.0527 1.78979 20.8428 1.53076 20.8428C1.27173 20.8428 1.06177 21.0527 1.06177 21.3118V29.595C0.864746 29.7022 0.730713 29.9109 0.730713 30.1504V31.1846H0.468994C0.209961 31.1846 0 31.3945 0 31.6536C0 31.9124 0.209961 32.1223 0.468994 32.1223H31.531C31.79 32.1223 32 31.9124 32 31.6536C32 31.3945 31.79 31.1846 31.531 31.1846ZM29.2495 15.0581V15.8826H29.1345L11.8257 15.8821V15.0581C11.8257 14.9893 11.8818 14.9334 11.9507 14.9334H29.1245C29.1934 14.9334 29.2495 14.9893 29.2495 15.0581ZM2.49609 13.1711C2.49609 13.1023 2.55225 13.0461 2.62109 13.0461H2.83105H2.8335H13.3867C13.3818 13.0872 13.3787 13.1287 13.3787 13.1711V13.9954H2.49609V13.1711ZM3.42725 11.1592H14.1033C14.1721 11.1592 14.228 11.2151 14.228 11.2842V12.1084H3.30225V11.2842C3.30225 11.2151 3.35815 11.1592 3.42725 11.1592ZM21.0066 2.60034L23.7913 3.23633L21.0066 4.20776V2.60034ZM20.156 7.51709C20.156 7.44824 20.2119 7.39233 20.2808 7.39233H20.7944C20.8633 7.39233 20.9194 7.44824 20.9194 7.51709V8.33423H20.156V7.51709ZM19.0864 9.39697C19.0864 9.32813 19.1426 9.27222 19.2114 9.27222H22.1909C22.2598 9.27222 22.3159 9.32813 22.3159 9.39697V10.2214H19.0864V9.39697ZM16.9097 11.2842C16.9097 11.2151 16.9656 11.1592 17.0347 11.1592H24.303C24.3718 11.1592 24.4277 11.2151 24.4277 11.2842V12.1118L21.7766 12.1155C21.5176 12.116 21.3081 12.3262 21.3083 12.5852C21.3088 12.844 21.5186 13.0535 21.7773 13.0535H21.7781L26.8049 13.0464C26.8738 13.0464 26.9299 13.1023 26.9299 13.1711V13.9956L14.3167 13.9954V13.1711C14.3167 13.1023 14.3726 13.0464 14.4414 13.0464H19.3945C19.6536 13.0464 19.8635 12.8364 19.8635 12.5774C19.8635 12.3184 19.6536 12.1084 19.3945 12.1084H16.9097V11.2842ZM8.38354 1.84888C8.38354 1.78003 8.43945 1.72412 8.50854 1.72412H9.02197C9.09082 1.72412 9.14697 1.78003 9.14697 1.84888V2.67334H8.38354V1.84888ZM7.26367 3.73584C7.26367 3.66699 7.31958 3.61108 7.38843 3.61108H10.1418C10.2107 3.61108 10.2668 3.66699 10.2668 3.73584V4.5603H7.26367V3.73584ZM5.19775 7.51001C5.19775 7.44116 5.25391 7.38525 5.32275 7.38525H7.4646C7.72363 7.38525 7.93359 7.17529 7.93359 6.91626C7.93359 6.65723 7.72363 6.44727 7.4646 6.44727H6.2627V5.62305C6.2627 5.55396 6.3186 5.49805 6.38745 5.49805H11.1431C11.2119 5.49805 11.2678 5.55396 11.2678 5.62305V6.44995L9.81396 6.45435C9.55493 6.45508 9.3457 6.66577 9.34644 6.92481C9.34717 7.18311 9.55688 7.39209 9.81543 7.39209H9.81665L12.2078 7.38525C12.2766 7.38525 12.3325 7.44116 12.3325 7.51001V8.33423H5.19775V7.51001ZM4.15186 9.39697C4.15186 9.32813 4.20776 9.27222 4.27661 9.27222H13.2539C13.3228 9.27222 13.3787 9.32813 13.3787 9.39697V10.2214H4.15186V9.39697ZM1.55884 15.8821V15.0581C1.55884 14.9893 1.61475 14.9331 1.68335 14.9331H10.896C10.8911 14.9741 10.8879 15.0156 10.8879 15.0581V15.8821H1.55884ZM12.4097 16.8203H28.6655V29.5188H24.7905V27.6216C24.7905 27.3628 24.5806 27.1528 24.3218 27.1528C24.0627 27.1528 23.8528 27.3628 23.8528 27.6216V29.5188H17.8894V23.0469C17.8894 21.4026 19.2271 20.0649 20.8711 20.0649C22.5151 20.0649 23.8528 21.4026 23.8528 23.0469V25.3718C23.8528 25.6309 24.0627 25.8406 24.3218 25.8406C24.5808 25.8406 24.7908 25.6309 24.7908 25.3718V23.0469C24.7908 20.8855 23.0325 19.1272 20.8711 19.1272C18.71 19.1272 16.9517 20.8855 16.9517 23.0469V29.5188H12.4099V16.8203H12.4097ZM1.66846 31.1846V30.4565H29.1345C29.6282 30.4565 30.053 30.7571 30.2358 31.1846H1.66846Z" fill="#131542"/>
<path d="M8.51562 25.4402H8.54688V25.4089V22.0647C8.54688 20.9447 7.63567 20.0334 6.51587 20.0334C5.39558 20.0334 4.48462 20.9447 4.48462 22.0647V25.4089V25.4402H4.51587H8.51562ZM9.42212 25.8777C9.42212 26.1195 9.22614 26.3154 8.98462 26.3154H4.04688C3.80512 26.3154 3.60937 26.1195 3.60937 25.8777V22.0647C3.60937 20.4618 4.91325 19.1582 6.51587 19.1582C8.11848 19.1582 9.42212 20.4618 9.42212 22.0647V25.8777Z" fill="#131542" stroke="#131542" stroke-width="0.0625"/>
</g>
<defs>
<clipPath id="clip0_2641_34464">
<rect width="32" height="32" fill="white" transform="translate(0 0.473633)"/>
</clipPath>
</defs>
</svg>
