<svg width="32" height="33" viewBox="0 0 32 33" fill="none" xmlns="http://www.w3.org/2000/svg">
<g clip-path="url(#clip0_2641_30183)">
<path d="M28.4775 22.4951V13.5176H27.4765V8.8789L24.4736 2.37255V0.473633H23.5352V2.37255L20.5322 8.8789V13.5176H19.5313V15.9405L16.4658 11.3423V9.48243H15.5274V11.3423L12.4619 15.9405V13.5176H9.45893V10.5147H6.51856V13.5176H5.45502V9.45115H10.5225V12.4854H11.4609V8.8789L8.45795 2.37255V0.473633H7.51953V2.37255L4.5166 8.8789V13.5176H3.51562V16.4893H4.45404V14.456H11.5234V19.5235H9.45893V16.5206H6.51856V19.5235H4.45404V17.4902H3.51562V32.4736H28.4775V23.4961H27.5391V25.5294H26.4755V22.5264H21.5332V25.5294H20.4697V20.4619H27.5391V22.4951H28.4775ZM5.71915 8.51273L7.98874 3.59524L10.2583 8.51273H5.71915ZM7.45697 11.4531H8.52051V13.5176H7.45697V11.4531ZM26.274 8.51273H21.7348L24.0044 3.59524L26.274 8.51273ZM21.4707 9.45115H26.5381V13.5176H25.4746V10.5147H22.5342V13.5176H21.4707V9.45115ZM24.5361 13.5176H23.4726V11.4531H24.5361V13.5176ZM19.5313 27.3682L15.9966 23.8335L12.4619 27.3682V22.9643H19.5313V27.3682ZM19.5313 22.0259H12.4619V17.9595H19.5313V22.0259ZM12.8694 17.021L15.9966 12.3303L19.1237 17.021H12.8694ZM7.45697 17.459H8.52051V19.5235H7.45697V17.459ZM11.5234 20.4619V25.5294H10.4599V22.5264H5.51758V25.5294H4.45404V20.4619H11.5234ZM6.456 25.5294V23.4648H7.51953V25.5294H6.456ZM8.45795 23.4648H9.52149V25.5294H8.45795V23.4648ZM4.45404 26.4678H11.5234V31.5352H10.4599V28.5323H5.51758V31.5352H4.45404V26.4678ZM8.45795 29.4707H9.52149V31.5352H8.45795V29.4707ZM7.51953 31.5352H6.456V29.4707H7.51953V31.5352ZM16.5283 31.5352H15.4648V29.0015C15.4648 28.7083 15.7033 28.4697 15.9966 28.4697C16.2898 28.4697 16.5283 28.7083 16.5283 29.0015V31.5352ZM25.5371 31.5352H24.4736V29.4707H25.5371V31.5352ZM23.5352 31.5352H22.4716V29.4707H23.5352V31.5352ZM25.5371 25.5294H24.4736V23.4648H25.5371V25.5294ZM22.4716 23.4648H23.5352V25.5294H22.4716V23.4648ZM27.5391 26.4678V31.5352H26.4755V28.5323H21.5332V31.5352H17.4667V29.0015C17.4667 28.1908 16.8072 27.5313 15.9966 27.5313C15.1859 27.5313 14.5264 28.1908 14.5264 29.0015V31.5352H12.4619V28.6954L15.9966 25.1607L19.5313 28.6954V30.503H20.4697V26.4678H27.5391ZM24.5361 19.5235H23.4726V17.459H24.5361V19.5235ZM25.4746 19.5235V16.5206H22.5342V19.5235H20.4697V14.456H27.5391V19.5235H25.4746Z" fill="#131542"/>
<path d="M15.5313 19.5547H16.4697V20.4306H15.5313V19.5547Z" fill="#131542" stroke="#131542" stroke-width="0.0625611"/>
<path d="M13.4922 19.5234H14.4932V20.4619H13.4922V19.5234Z" fill="#131542"/>
<path d="M17.5 19.5234H18.501V20.4619H17.5V19.5234Z" fill="#131542"/>
</g>
<defs>
<clipPath id="clip0_2641_30183">
<rect width="32" height="32" fill="white" transform="translate(0 0.473633)"/>
</clipPath>
</defs>
</svg>
