<svg width="32" height="33" viewBox="0 0 32 33" fill="none" xmlns="http://www.w3.org/2000/svg">
<path d="M2.65625 18.1537C2.65625 19.8342 2.96025 21.4622 3.55825 22.9892C3.71825 23.4092 3.92125 23.8547 4.18025 24.3577C6.50325 28.7612 11.0328 31.4967 15.9998 31.4967C20.9668 31.4967 25.5028 28.7607 27.8218 24.3532C28.0783 23.8547 28.2808 23.4087 28.4398 22.9927C29.0393 21.4617 29.3433 19.8342 29.3433 18.1532C29.3433 17.8767 29.1192 17.6532 28.8433 17.6532H25.8207V9.01616C25.8207 8.74016 25.5967 8.51616 25.3207 8.51616H20.1392V5.65616C20.1392 5.38016 19.9152 5.15616 19.6392 5.15616H19.2537V3.82666C19.2537 3.55066 19.0297 3.32666 18.7537 3.32666H18.3552V1.97266C18.3552 1.69666 18.1312 1.47266 17.8552 1.47266H14.1477C13.8717 1.47266 13.6477 1.69666 13.6477 1.97266V3.32666H13.2487C12.9727 3.32666 12.7487 3.55066 12.7487 3.82666V5.15616H12.3632C12.0872 5.15616 11.8632 5.38016 11.8632 5.65616V8.51616H6.67975C6.40375 8.51616 6.17975 8.74016 6.17975 9.01616V17.6532H3.15725C2.88125 17.6532 2.65725 17.8767 2.65725 18.1532L2.65625 18.1537ZM5.48375 24.6242H10.6733C11.2928 27.1292 12.2192 29.0412 13.3368 30.2042C10.0968 29.4912 7.25625 27.4987 5.48375 24.6242ZM10.9313 18.6537H21.0672C21.0372 20.3747 20.8472 22.0717 20.5238 23.6242H11.4742C11.1508 22.0712 10.9602 20.3742 10.9307 18.6537H10.9313ZM12.8623 9.02466C12.8623 9.02166 12.8638 9.01916 12.8638 9.01616C12.8638 9.01316 12.8623 9.01066 12.8623 9.00766V6.15616H19.1383V17.6512H12.8623V9.02466ZM15.9993 30.4967C14.2938 30.4967 12.6388 28.2112 11.7023 24.6242H20.2957C19.3592 28.2117 17.7042 30.4967 15.9987 30.4967H15.9993ZM18.6613 30.2052C19.7788 29.0422 20.7057 27.1302 21.3258 24.6242H26.5158C24.7453 27.5012 21.9048 29.4932 18.6613 30.2052ZM27.5063 22.6327C27.3892 22.9392 27.2372 23.2717 27.0637 23.6242H21.5417C21.8568 22.0497 22.0308 20.3842 22.0592 18.6537H28.3333C28.2798 20.0317 28.0018 21.3672 27.5063 22.6327ZM24.8197 9.51666V17.6517H20.1383V9.51666H24.8197ZM14.6468 2.47316H17.3542V3.32716H14.6468V2.47316ZM13.7478 4.32716H18.2528V5.15666H13.7478V4.32716ZM7.17875 9.51666H11.8623V17.6517H7.17875V9.51666ZM9.93975 18.6537C9.96775 20.3842 10.1423 22.0497 10.4573 23.6242H4.93475C4.76075 23.2702 4.60875 22.9377 4.49075 22.6287C3.99625 21.3667 3.71975 20.0317 3.66575 18.6537H9.93975Z" fill="#131542"/>
<path d="M14.1484 8.06055H17.8559C17.9939 8.06055 18.1059 8.17262 18.1059 8.31055C18.1059 8.44848 17.9939 8.56055 17.8559 8.56055H14.1484C14.0105 8.56055 13.8984 8.44848 13.8984 8.31055C13.8984 8.17262 14.0105 8.06055 14.1484 8.06055Z" fill="#131542" stroke="#131542" stroke-width="0.5"/>
<path d="M17.8559 10.207H14.1484C13.8724 10.207 13.6484 10.431 13.6484 10.707C13.6484 10.983 13.8724 11.207 14.1484 11.207H17.8559C18.1319 11.207 18.3559 10.983 18.3559 10.707C18.3559 10.431 18.1319 10.207 17.8559 10.207Z" fill="#131542"/>
<path d="M17.8559 12.6045H14.1484C13.8724 12.6045 13.6484 12.8285 13.6484 13.1045C13.6484 13.3805 13.8724 13.6045 14.1484 13.6045H17.8559C18.1319 13.6045 18.3559 13.3805 18.3559 13.1045C18.3559 12.8285 18.1319 12.6045 17.8559 12.6045Z" fill="#131542"/>
<path d="M17.8559 15.001H14.1484C13.8724 15.001 13.6484 15.225 13.6484 15.501C13.6484 15.777 13.8724 16.001 14.1484 16.001H17.8559C18.1319 16.001 18.3559 15.777 18.3559 15.501C18.3559 15.225 18.1319 15.001 17.8559 15.001Z" fill="#131542"/>
<path d="M8.38281 11.834H10.3273C10.6033 11.834 10.8273 11.61 10.8273 11.334C10.8273 11.058 10.6033 10.834 10.3273 10.834H8.38281C8.10681 10.834 7.88281 11.058 7.88281 11.334C7.88281 11.61 8.10681 11.834 8.38281 11.834Z" fill="#131542"/>
<path d="M10.3273 12.917H8.38281C8.10681 12.917 7.88281 13.141 7.88281 13.417C7.88281 13.693 8.10681 13.917 8.38281 13.917H10.3273C10.6033 13.917 10.8273 13.693 10.8273 13.417C10.8273 13.141 10.6033 12.917 10.3273 12.917Z" fill="#131542"/>
<path d="M10.3273 15.001H8.38281C8.10681 15.001 7.88281 15.225 7.88281 15.501C7.88281 15.777 8.10681 16.001 8.38281 16.001H10.3273C10.6033 16.001 10.8273 15.777 10.8273 15.501C10.8273 15.225 10.6033 15.001 10.3273 15.001Z" fill="#131542"/>
<path d="M21.3281 11.834H23.2726C23.5486 11.834 23.7726 11.61 23.7726 11.334C23.7726 11.058 23.5486 10.834 23.2726 10.834H21.3281C21.0521 10.834 20.8281 11.058 20.8281 11.334C20.8281 11.61 21.0521 11.834 21.3281 11.834Z" fill="#131542"/>
<path d="M21.3281 13.917H23.2726C23.5486 13.917 23.7726 13.693 23.7726 13.417C23.7726 13.141 23.5486 12.917 23.2726 12.917H21.3281C21.0521 12.917 20.8281 13.141 20.8281 13.417C20.8281 13.693 21.0521 13.917 21.3281 13.917Z" fill="#131542"/>
<path d="M23.2726 15.001H21.3281C21.0521 15.001 20.8281 15.225 20.8281 15.501C20.8281 15.777 21.0521 16.001 21.3281 16.001H23.2726C23.5486 16.001 23.7726 15.777 23.7726 15.501C23.7726 15.225 23.5486 15.001 23.2726 15.001Z" fill="#131542"/>
</svg>
