<svg width="47" height="24" viewBox="0 0 47 24" fill="none" xmlns="http://www.w3.org/2000/svg">
<path d="M3 10.5C2.17157 10.5 1.5 11.1716 1.5 12C1.5 12.8284 2.17157 13.5 3 13.5L3 10.5ZM45.0607 13.0607C45.6464 12.4749 45.6464 11.5251 45.0607 10.9393L35.5147 1.39341C34.9289 0.80762 33.9792 0.807621 33.3934 1.39341C32.8076 1.97919 32.8076 2.92894 33.3934 3.51473L41.8787 12L33.3934 20.4853C32.8076 21.0711 32.8076 22.0208 33.3934 22.6066C33.9792 23.1924 34.9289 23.1924 35.5147 22.6066L45.0607 13.0607ZM3 13.5L44 13.5L44 10.5L3 10.5L3 13.5Z" fill="#E41F28"/>
</svg>
