<svg width="32" height="33" viewBox="0 0 32 33" fill="none" xmlns="http://www.w3.org/2000/svg">
<g clip-path="url(#clip0_2641_33162)">
<path d="M21.5 5.97363C21.2235 5.97363 21 6.19763 21 6.47363V7.97363H22V6.97363H22.793L24.1465 8.32713L24.8535 7.62013L23.3535 6.12013C23.26 6.02613 23.133 5.97363 23 5.97363H21.5Z" fill="#131542"/>
<mask id="path-2-inside-1_2641_33162" fill="white">
<path d="M31.5 16.9736V4.47363C31.5 2.54363 29.9295 0.973633 28 0.973633H24.5C22.7405 0.973633 21.284 2.28013 21.04 3.97363H20.5C20.3105 3.97363 20.1375 4.08063 20.0525 4.25013L19.191 5.97363H17C16.173 5.97363 15.5 6.64663 15.5 7.47363V8.47363C15.5 8.74963 15.7235 8.97363 16 8.97363H19C19.276 8.97363 19.5 9.19813 19.5 9.47363C19.5 9.74913 19.276 9.97363 19 9.97363H17C16.7235 9.97363 16.5 10.1976 16.5 10.4736V11.4736C16.5 12.3006 17.173 12.9736 18 12.9736H21.293L21.1465 13.1201C21.0525 13.2136 21 13.3411 21 13.4736V15.9736H22V13.6806L24.3535 11.3271C24.4475 11.2336 24.5 11.1061 24.5 10.9736V9.47363H23.5V10.7666L22.293 11.9736H18C17.724 11.9736 17.5 11.7491 17.5 11.4736V10.9736H19C19.827 10.9736 20.5 10.3006 20.5 9.47363C20.5 8.64663 19.827 7.97363 19 7.97363H16.5V7.47363C16.5 7.19813 16.724 6.97363 17 6.97363H19.5C19.6895 6.97363 19.8625 6.86663 19.9475 6.69713L20.809 4.97363H23.293L25.1465 6.82713L25.8535 6.12013L23.8535 4.12013C23.76 4.02613 23.633 3.97363 23.5 3.97363H22.0505C22.283 2.83413 23.293 1.97363 24.5 1.97363H28C29.3785 1.97363 30.5 3.09513 30.5 4.47363V16.4736H27.5V17.4736H28.504C28.524 19.8421 29.21 22.1351 30.499 24.1211C30.42 27.9131 27.3105 30.9736 23.5 30.9736C19.64 30.9736 16.5 27.8336 16.5 23.9736V21.4736C16.5 19.3651 15.0425 17.5911 13.0825 17.1051C13.6575 16.5691 14.3015 16.1336 14.99 15.7936L16.1 17.2736L16.9 16.6736L15.941 15.3951C16.6005 15.1716 17.291 15.0331 18 14.9891V18.9736H19V16.0656C19.5805 16.2726 20 16.8226 20 17.4736V20.9736H21V19.0656C21.5805 19.2726 22 19.8226 22 20.4736V21.6856C21.693 21.5506 21.356 21.4736 21 21.4736C19.6215 21.4736 18.5 22.5951 18.5 23.9736C18.5 25.3521 19.6215 26.4736 21 26.4736C22.3785 26.4736 23.5 25.3521 23.5 23.9736C23.5 23.4086 23.3045 22.8926 22.987 22.4736H23V20.4736C23 19.2666 22.1395 18.2566 21 18.0241V17.4736C21 16.2666 20.1395 15.2566 19 15.0241V14.4736C19 14.1976 18.7765 13.9736 18.5 13.9736C16.1095 13.9736 13.862 14.9046 12.1715 16.5951L11.6465 17.1201C11.5035 17.2631 11.4605 17.4781 11.538 17.6651C11.6155 17.8521 11.798 17.9736 12 17.9736C13.9295 17.9736 15.5 19.5436 15.5 21.4736V23.9736C15.5 26.9836 17.1725 29.6081 19.6355 30.9736H0.5V31.9736H31.5V30.9736H27.3645C29.8275 29.6081 31.5 26.9836 31.5 23.9736C31.5 23.8751 31.4705 23.7781 31.416 23.6961C30.182 21.8456 29.524 19.6961 29.504 17.4736H31C31.2765 17.4736 31.5 17.2496 31.5 16.9736ZM21 25.4736C20.173 25.4736 19.5 24.8006 19.5 23.9736C19.5 23.1466 20.173 22.4736 21 22.4736C21.827 22.4736 22.5 23.1466 22.5 23.9736C22.5 24.8006 21.827 25.4736 21 25.4736Z"/>
</mask>
<path d="M31.5 16.9736V4.47363C31.5 2.54363 29.9295 0.973633 28 0.973633H24.5C22.7405 0.973633 21.284 2.28013 21.04 3.97363H20.5C20.3105 3.97363 20.1375 4.08063 20.0525 4.25013L19.191 5.97363H17C16.173 5.97363 15.5 6.64663 15.5 7.47363V8.47363C15.5 8.74963 15.7235 8.97363 16 8.97363H19C19.276 8.97363 19.5 9.19813 19.5 9.47363C19.5 9.74913 19.276 9.97363 19 9.97363H17C16.7235 9.97363 16.5 10.1976 16.5 10.4736V11.4736C16.5 12.3006 17.173 12.9736 18 12.9736H21.293L21.1465 13.1201C21.0525 13.2136 21 13.3411 21 13.4736V15.9736H22V13.6806L24.3535 11.3271C24.4475 11.2336 24.5 11.1061 24.5 10.9736V9.47363H23.5V10.7666L22.293 11.9736H18C17.724 11.9736 17.5 11.7491 17.5 11.4736V10.9736H19C19.827 10.9736 20.5 10.3006 20.5 9.47363C20.5 8.64663 19.827 7.97363 19 7.97363H16.5V7.47363C16.5 7.19813 16.724 6.97363 17 6.97363H19.5C19.6895 6.97363 19.8625 6.86663 19.9475 6.69713L20.809 4.97363H23.293L25.1465 6.82713L25.8535 6.12013L23.8535 4.12013C23.76 4.02613 23.633 3.97363 23.5 3.97363H22.0505C22.283 2.83413 23.293 1.97363 24.5 1.97363H28C29.3785 1.97363 30.5 3.09513 30.5 4.47363V16.4736H27.5V17.4736H28.504C28.524 19.8421 29.21 22.1351 30.499 24.1211C30.42 27.9131 27.3105 30.9736 23.5 30.9736C19.64 30.9736 16.5 27.8336 16.5 23.9736V21.4736C16.5 19.3651 15.0425 17.5911 13.0825 17.1051C13.6575 16.5691 14.3015 16.1336 14.99 15.7936L16.1 17.2736L16.9 16.6736L15.941 15.3951C16.6005 15.1716 17.291 15.0331 18 14.9891V18.9736H19V16.0656C19.5805 16.2726 20 16.8226 20 17.4736V20.9736H21V19.0656C21.5805 19.2726 22 19.8226 22 20.4736V21.6856C21.693 21.5506 21.356 21.4736 21 21.4736C19.6215 21.4736 18.5 22.5951 18.5 23.9736C18.5 25.3521 19.6215 26.4736 21 26.4736C22.3785 26.4736 23.5 25.3521 23.5 23.9736C23.5 23.4086 23.3045 22.8926 22.987 22.4736H23V20.4736C23 19.2666 22.1395 18.2566 21 18.0241V17.4736C21 16.2666 20.1395 15.2566 19 15.0241V14.4736C19 14.1976 18.7765 13.9736 18.5 13.9736C16.1095 13.9736 13.862 14.9046 12.1715 16.5951L11.6465 17.1201C11.5035 17.2631 11.4605 17.4781 11.538 17.6651C11.6155 17.8521 11.798 17.9736 12 17.9736C13.9295 17.9736 15.5 19.5436 15.5 21.4736V23.9736C15.5 26.9836 17.1725 29.6081 19.6355 30.9736H0.5V31.9736H31.5V30.9736H27.3645C29.8275 29.6081 31.5 26.9836 31.5 23.9736C31.5 23.8751 31.4705 23.7781 31.416 23.6961C30.182 21.8456 29.524 19.6961 29.504 17.4736H31C31.2765 17.4736 31.5 17.2496 31.5 16.9736ZM21 25.4736C20.173 25.4736 19.5 24.8006 19.5 23.9736C19.5 23.1466 20.173 22.4736 21 22.4736C21.827 22.4736 22.5 23.1466 22.5 23.9736C22.5 24.8006 21.827 25.4736 21 25.4736Z" fill="#131542" stroke="#131542" mask="url(#path-2-inside-1_2641_33162)"/>
<path d="M29.5 11.9736V6.47363H28.5V11.7666L25.6465 14.6201C25.5525 14.7136 25.5 14.8411 25.5 14.9736V18.4736H26.5V15.1806L29.3535 12.3271C29.4475 12.2336 29.5 12.1061 29.5 11.9736Z" fill="#131542"/>
<path d="M25.5 19.4736H26.5V20.4736H25.5V19.4736Z" fill="#131542"/>
<path d="M26.5 10.7666L23.6465 13.6201C23.5525 13.7136 23.5 13.8411 23.5 13.9736V16.9736H24.5V14.1806L27.3535 11.3271C27.4475 11.2336 27.5 11.1061 27.5 10.9736V5.47363H26.5V10.7666Z" fill="#131542"/>
<path d="M26.5 3.47363H27.5V4.47363H26.5V3.47363Z" fill="#131542"/>
<path d="M29.5 23.4736H28.5C28.5 23.7491 28.276 23.9736 28 23.9736C27.724 23.9736 27.5 23.7491 27.5 23.4736H26.5C26.5 23.7491 26.276 23.9736 26 23.9736C25.724 23.9736 25.5 23.7491 25.5 23.4736H24.5C24.5 24.3006 25.173 24.9736 26 24.9736C26.3855 24.9736 26.734 24.8231 27 24.5836C27.266 24.8236 27.6145 24.9736 28 24.9736C28.827 24.9736 29.5 24.3006 29.5 23.4736Z" fill="#131542"/>
<path d="M27.5 26.4736C27.224 26.4736 27 26.2491 27 25.9736H26C26 26.2491 25.776 26.4736 25.5 26.4736C25.224 26.4736 25 26.2491 25 25.9736H24C24 26.8006 24.673 27.4736 25.5 27.4736C25.8855 27.4736 26.234 27.3231 26.5 27.0836C26.766 27.3236 27.1145 27.4736 27.5 27.4736C28.327 27.4736 29 26.8006 29 25.9736H28C28 26.2491 27.776 26.4736 27.5 26.4736Z" fill="#131542"/>
<path d="M22.5 28.9736C22.224 28.9736 22 28.7491 22 28.4736H21C21 29.3006 21.673 29.9736 22.5 29.9736C22.8855 29.9736 23.234 29.8231 23.5 29.5836C23.766 29.8236 24.1145 29.9736 24.5 29.9736C25.327 29.9736 26 29.3006 26 28.4736H25C25 28.7491 24.776 28.9736 24.5 28.9736C24.224 28.9736 24 28.7491 24 28.4736H23C23 28.7491 22.776 28.9736 22.5 28.9736Z" fill="#131542"/>
<path d="M26 21.4736C25.724 21.4736 25.5 21.2491 25.5 20.9736H24.5C24.5 21.8006 25.173 22.4736 26 22.4736C26.827 22.4736 27.5 21.8006 27.5 20.9736H26.5C26.5 21.2491 26.276 21.4736 26 21.4736Z" fill="#131542"/>
<path d="M2 23.9736C2.276 23.9736 2.5 24.1981 2.5 24.4736V25.4736C2.5 26.3006 3.173 26.9736 4 26.9736C4.827 26.9736 5.5 26.3006 5.5 25.4736V22.4736C5.5 22.1981 5.724 21.9736 6 21.9736C6.276 21.9736 6.5 22.1981 6.5 22.4736V23.4736C6.5 24.3006 7.173 24.9736 8 24.9736C8.827 24.9736 9.5 24.3006 9.5 23.4736V17.9736H8.5V23.4736C8.5 23.7491 8.276 23.9736 8 23.9736C7.724 23.9736 7.5 23.7491 7.5 23.4736V22.4736C7.5 21.6466 6.827 20.9736 6 20.9736C5.173 20.9736 4.5 21.6466 4.5 22.4736V25.4736C4.5 25.7491 4.276 25.9736 4 25.9736C3.724 25.9736 3.5 25.7491 3.5 25.4736V24.4736C3.5 23.6466 2.827 22.9736 2 22.9736C1.724 22.9736 1.5 22.7491 1.5 22.4736V18.9736C1.5 14.5796 4.6675 10.9171 8.8375 10.1341C5.667 11.8131 3.5 15.1431 3.5 18.9736H4.5C4.5 15.6681 6.2965 12.7806 8.9595 11.2161C7.4465 12.6721 6.5 14.7126 6.5 16.9736V18.9736H7.5V16.9736C7.5 13.1136 10.64 9.97363 14.5 9.97363V8.97363H13.5H10.5C4.986 8.97363 0.5 13.4596 0.5 18.9736V22.4736C0.5 23.3006 1.173 23.9736 2 23.9736Z" fill="#131542"/>
<path d="M8 25.9736C7.173 25.9736 6.5 26.6466 6.5 27.4736V28.4736C6.5 29.3006 7.173 29.9736 8 29.9736C8.827 29.9736 9.5 29.3006 9.5 28.4736V27.4736C9.5 26.6466 8.827 25.9736 8 25.9736ZM8.5 28.4736C8.5 28.7491 8.276 28.9736 8 28.9736C7.724 28.9736 7.5 28.7491 7.5 28.4736V27.4736C7.5 27.1981 7.724 26.9736 8 26.9736C8.276 26.9736 8.5 27.1981 8.5 27.4736V28.4736Z" fill="#131542"/>
</g>
<defs>
<clipPath id="clip0_2641_33162">
<rect width="32" height="32" fill="white" transform="translate(0 0.473633)"/>
</clipPath>
</defs>
</svg>
