<svg width="32" height="33" viewBox="0 0 32 33" fill="none" xmlns="http://www.w3.org/2000/svg">
<path d="M29.7382 27.2295L30.4879 25.28C30.5158 25.2073 30.5256 25.1289 30.5164 25.0515C30.5073 24.9742 30.4794 24.9002 30.4353 24.836C30.3912 24.7718 30.3322 24.7193 30.2633 24.683C30.1943 24.6468 30.1176 24.6278 30.0398 24.6277H25.4688C25.2234 23.9362 24.8054 23.3188 24.2545 22.8341C24.2688 22.7934 24.2774 22.7508 24.2799 22.7078V18.3878C24.2786 17.9121 24.1594 17.4442 23.9331 17.0258C23.7068 16.6074 23.3804 16.2515 22.983 15.99C23.0318 15.8527 23.0771 15.7145 23.1153 15.5737L27.2762 14.5335C27.38 14.5075 27.4721 14.4476 27.5379 14.3632C27.6037 14.2789 27.6395 14.1749 27.6395 14.0679C27.6395 13.9609 27.6037 13.857 27.5379 13.7726C27.4721 13.6883 27.38 13.6283 27.2762 13.6023L23.1134 12.5614C22.9851 12.0876 22.7964 11.6322 22.5518 11.2066L24.7598 7.52673C24.8149 7.43493 24.8378 7.32734 24.8247 7.22107C24.8116 7.1148 24.7634 7.01594 24.6877 6.94023C24.612 6.86452 24.5131 6.8163 24.4069 6.80323C24.3006 6.79017 24.193 6.81301 24.1012 6.86813L20.4212 9.07587C19.9955 8.83139 19.5402 8.64274 19.0663 8.51456L18.0255 4.35141C17.9995 4.2476 17.9396 4.15543 17.8553 4.08957C17.7709 4.02371 17.667 3.98793 17.56 3.98793C17.453 3.98793 17.3491 4.02371 17.2647 4.08957C17.1804 4.15543 17.1205 4.2476 17.0946 4.35141L16.0535 8.51456C15.5797 8.64274 15.1243 8.83139 14.6987 9.07587L11.0187 6.86813C10.9269 6.81292 10.8192 6.79002 10.7129 6.80305C10.6066 6.81608 10.5077 6.8643 10.4319 6.94004C10.3562 7.01579 10.3079 7.11469 10.2949 7.22101C10.2818 7.32734 10.3047 7.43497 10.3599 7.52678L12.5679 11.2066C12.3234 11.6323 12.1348 12.0876 12.0066 12.5615L7.84373 13.6022C7.73995 13.6282 7.64782 13.6881 7.582 13.7725C7.51618 13.8568 7.48043 13.9608 7.48043 14.0678C7.48043 14.1748 7.51618 14.2787 7.582 14.3631C7.64782 14.4474 7.73995 14.5074 7.84373 14.5334L12.0046 15.5736C12.043 15.7145 12.0881 15.8528 12.137 15.9901C11.7397 16.2516 11.4133 16.6074 11.1869 17.0258C10.9606 17.4442 10.8414 17.9121 10.8399 18.3878V19.5398L8.84313 18.0877L6.58197 11.6812L6.94365 8.78787H7.47994C7.60725 8.78787 7.72934 8.7373 7.81935 8.64728C7.90937 8.55727 7.95994 8.43518 7.95994 8.30788V6.38789C7.95994 6.26059 7.90937 6.1385 7.81935 6.04848C7.72934 5.95847 7.60725 5.9079 7.47994 5.9079H6.43096C6.48481 5.83104 6.53378 5.75088 6.5776 5.6679C6.76654 5.30642 6.85237 4.89992 6.82566 4.49291C6.79896 4.08591 6.66076 3.69411 6.42621 3.36041L4.99323 1.3128C4.94671 1.25282 4.88709 1.20427 4.81893 1.17088C4.75077 1.13748 4.67587 1.12012 4.59997 1.12012C4.52407 1.12012 4.44917 1.13748 4.38101 1.17088C4.31284 1.20427 4.25322 1.25282 4.20671 1.3128L2.77373 3.36003C2.51017 3.73234 2.36824 4.17705 2.36738 4.6332C2.36652 5.08935 2.50678 5.5346 2.76893 5.9079H1.71999C1.59269 5.9079 1.4706 5.95847 1.38059 6.04848C1.29057 6.1385 1.24 6.26059 1.24 6.38789V8.30788C1.24092 8.4267 1.28638 8.54086 1.36739 8.62779C1.12947 8.95286 1.00084 9.34503 1 9.74786V10.7079C1.00146 11.1835 1.17979 11.6415 1.50031 11.9929C1.82083 12.3443 2.2606 12.5639 2.73408 12.609L3.16373 16.0473C3.17824 16.1624 3.23398 16.2683 3.32061 16.3455C3.40724 16.4226 3.51889 16.4658 3.63489 16.4669L3.64449 16.5355C3.64828 16.5603 3.65375 16.5848 3.66086 16.6089L5.23524 21.7263L4.70101 22.4131C4.6357 22.497 4.60008 22.6002 4.59974 22.7065C4.5994 22.8128 4.63436 22.9162 4.69914 23.0005L9.39974 29.1108V31.3476C9.39974 31.4749 9.45031 31.597 9.54032 31.687C9.63034 31.7771 9.75243 31.8276 9.87973 31.8276H27.6396C27.7366 31.8276 27.8314 31.7983 27.9114 31.7433C27.9914 31.6884 28.0529 31.6105 28.0877 31.5199L28.1959 31.2387C28.4036 31.3079 28.6207 31.3446 28.8396 31.3476C29.3323 31.3486 29.8105 31.1807 30.1946 30.872C30.5787 30.5633 30.8454 30.1324 30.9504 29.6509C31.0555 29.1695 30.9924 28.6666 30.7718 28.226C30.5513 27.7854 30.1866 27.4339 29.7382 27.2295ZM24.6581 25.2828L23.067 29.4196L22.3556 24.0842C22.3382 23.9585 22.2718 23.8447 22.1708 23.7679C22.0698 23.691 21.9424 23.6573 21.8166 23.6741C21.6908 23.6908 21.5767 23.7568 21.4994 23.8575C21.4221 23.9581 21.3878 24.0853 21.404 24.2112L22.2916 30.8677H17.3535L20.3948 24.3506C20.4215 24.2935 20.4366 24.2317 20.4394 24.1687C20.4421 24.1058 20.4325 24.0429 20.4109 23.9836C20.3894 23.9244 20.3564 23.87 20.3138 23.8235C20.2712 23.777 20.2199 23.7393 20.1628 23.7127C20.1057 23.686 20.0439 23.6709 19.9809 23.6681C19.9179 23.6654 19.855 23.675 19.7958 23.6966C19.7365 23.7181 19.6821 23.7511 19.6356 23.7937C19.5892 23.8363 19.5515 23.8876 19.5249 23.9447L16.2942 30.8677H11.0978L17.4193 24.9671L19.6787 22.7078H21.3998C22.1529 22.7101 22.8833 22.9651 23.4741 23.4321C24.0649 23.899 24.4818 24.5507 24.6581 25.2828ZM12.7599 14.0678C12.758 13.3457 12.919 12.6325 13.2309 11.9813C13.5429 11.33 13.9977 10.7576 14.5616 10.3065C15.1255 9.85548 15.7839 9.53748 16.4878 9.3762C17.1916 9.21492 17.9228 9.21452 18.6268 9.37504C19.3309 9.53555 19.9896 9.85284 20.554 10.3033C21.1184 10.7537 21.5739 11.3257 21.8865 11.9766C22.1992 12.6275 22.361 13.3405 22.3598 14.0626C22.3586 14.7847 22.1946 15.4972 21.8798 16.1471V15.0278C21.8798 13.8821 21.4247 12.7833 20.6145 11.9731C19.8044 11.163 18.7056 10.7079 17.5599 10.7079C16.4141 10.7079 15.3153 11.163 14.5052 11.9731C13.695 12.7833 13.2399 13.8821 13.2399 15.0278V16.1471C12.9247 15.4993 12.7605 14.7883 12.7599 14.0678ZM14.1999 17.4278V15.4738C14.9065 15.3949 15.5828 15.143 16.1688 14.7404C16.7549 14.3378 17.2326 13.797 17.5599 13.1657C17.8871 13.797 18.3649 14.3378 18.9509 14.7404C19.537 15.143 20.2132 15.3949 20.9198 15.4738V17.4278C20.9198 18.3189 20.5658 19.1735 19.9357 19.8037C19.3056 20.4338 18.451 20.7878 17.5599 20.7878C16.6687 20.7878 15.8141 20.4338 15.184 19.8037C14.5539 19.1735 14.1999 18.3189 14.1999 17.4278ZM14.2451 14.5026C14.357 13.803 14.6869 13.1567 15.1878 12.6558C15.6887 12.1549 16.3351 11.8249 17.0346 11.7131C16.9228 12.4126 16.5929 13.059 16.0919 13.5599C15.591 14.0608 14.9447 14.3907 14.2451 14.5026ZM18.0851 11.7131C18.7846 11.8249 19.431 12.1549 19.9319 12.6558C20.4328 13.1567 20.7627 13.803 20.8746 14.5026C20.175 14.3907 19.5287 14.0608 19.0278 13.5599C18.5269 13.059 18.1969 12.4126 18.0851 11.7131ZM19.9598 21.0173C20.3222 20.7737 20.6458 20.477 20.9198 20.1371V20.3078C20.92 20.8138 21.0544 21.3107 21.3095 21.7478H19.9598V21.0173ZM14.1999 20.1371C14.4739 20.477 14.7975 20.7737 15.1599 21.0173V21.7478H13.876L13.8255 21.711C14.0712 21.2842 14.2004 20.8003 14.1999 20.3078V20.1371ZM16.1199 21.4957C17.0505 21.8318 18.0693 21.8318 18.9998 21.4957V22.029L17.1752 23.8536L16.1199 22.0947V21.4957ZM23.3198 18.3878V22.167C22.9079 22.0601 22.5431 21.8196 22.2826 21.4831C22.022 21.1467 21.8804 20.7333 21.8798 20.3078V17.8614C22.1454 17.5598 22.3789 17.2313 22.5765 16.8814C22.8067 17.0595 22.9934 17.2877 23.1222 17.5487C23.251 17.8097 23.3186 18.0967 23.3198 18.3878ZM25.1808 14.0678L23.2974 14.5387C23.3102 14.3826 23.3198 14.2258 23.3198 14.0678C23.3198 13.9088 23.3086 13.7525 23.2958 13.5966L25.1808 14.0678ZM22.9488 8.67891L21.9485 10.3463C21.7447 10.1061 21.5216 9.88301 21.2816 9.67908L22.9488 8.67891ZM17.5599 6.4465L18.0314 8.33173C17.8755 8.31906 17.719 8.30773 17.5599 8.30773C17.4007 8.30773 17.2443 8.31891 17.0883 8.33173L17.5599 6.4465ZM12.1707 8.67877L13.8382 9.67913C13.598 9.88305 13.3749 10.1062 13.171 10.3463L12.1707 8.67877ZM9.93896 14.0678L11.8239 13.5966C11.8112 13.7525 11.7999 13.9086 11.7999 14.0678C11.7999 14.2258 11.8095 14.3826 11.8223 14.5387L9.93896 14.0678ZM11.7999 18.3878C11.8013 18.0968 11.869 17.8099 11.9978 17.549C12.1267 17.2881 12.3133 17.0599 12.5435 16.8819C12.741 17.2317 12.9744 17.5599 13.2399 17.8614V20.3078C13.2378 20.5964 13.1683 20.8805 13.0368 21.1374L11.7999 20.238V18.3878ZM7.89994 18.3001L5.95509 20.8009L4.62195 16.4678H5.55996C5.67695 16.4678 5.78991 16.4251 5.8776 16.3476C5.9653 16.2702 6.02171 16.1634 6.03621 16.0473L6.31562 13.8119L7.89994 18.3001ZM5.13622 15.5078H4.06372L3.68375 12.4674C4.02681 12.3185 4.31895 12.0727 4.52433 11.7601C4.72971 11.4476 4.83941 11.0819 4.83997 10.7079V9.74786C4.83802 9.4098 4.74584 9.07839 4.57295 8.78787H5.97621L5.13622 15.5078ZM3.47404 5.22472C3.36464 5.01936 3.31476 4.78753 3.33002 4.55534C3.34529 4.32316 3.42509 4.09985 3.56044 3.91059L4.59997 2.42509L5.63964 3.91083C5.7392 4.05309 5.80851 4.21428 5.84328 4.38441C5.87804 4.55454 5.87753 4.73 5.84177 4.89992C5.80601 5.06984 5.73576 5.23062 5.63537 5.37231C5.53498 5.51399 5.40658 5.63357 5.25812 5.72364C5.10966 5.81371 4.9443 5.87236 4.77226 5.89596C4.60023 5.91956 4.42518 5.90761 4.25795 5.86084C4.09072 5.81407 3.93487 5.73349 3.80003 5.62407C3.66519 5.51466 3.55424 5.37873 3.47404 5.22472ZM2.19999 6.86789H6.99995V7.82788H2.19999V6.86789ZM1.95999 10.7079V9.74786C1.95999 9.49326 2.06113 9.24908 2.24117 9.06905C2.4212 8.88901 2.66538 8.78787 2.91998 8.78787C3.17459 8.78787 3.41877 8.88901 3.5988 9.06905C3.77883 9.24908 3.87998 9.49326 3.87998 9.74786V10.7079C3.87998 10.9625 3.77883 11.2066 3.5988 11.3867C3.41877 11.5667 3.17459 11.6678 2.91998 11.6678C2.66538 11.6678 2.4212 11.5667 2.24117 11.3867C2.06113 11.2066 1.95999 10.9625 1.95999 10.7079ZM5.68697 22.7094L8.53368 19.0494L13.4377 22.6158C13.5197 22.6755 13.6185 22.7076 13.7199 22.7077H15.368L16.4685 24.5416L10.3599 30.243V28.9477C10.3599 28.8418 10.3249 28.7389 10.2606 28.6549L5.68697 22.7094ZM27.3103 30.8677H23.5387L25.5691 25.5877H29.3406L28.7848 27.0332C28.3579 27.0424 27.9434 27.1783 27.594 27.4238C27.2446 27.6693 26.9762 28.0132 26.823 28.4117C26.6697 28.8102 26.6385 29.2453 26.7333 29.6616C26.8281 30.078 27.0447 30.4566 27.3555 30.7495L27.3103 30.8677ZM28.8398 30.3877C28.6024 30.3877 28.3704 30.3173 28.1731 30.1855C27.9757 30.0536 27.8219 29.8662 27.7311 29.6469C27.6403 29.4276 27.6165 29.1864 27.6628 28.9536C27.7091 28.7208 27.8234 28.507 27.9912 28.3392C28.1591 28.1714 28.3729 28.0571 28.6057 28.0108C28.8384 27.9645 29.0797 27.9882 29.299 28.0791C29.5182 28.1699 29.7057 28.3237 29.8375 28.521C29.9694 28.7184 30.0398 28.9504 30.0398 29.1877C30.0394 29.5059 29.9129 29.8109 29.6879 30.0359C29.4629 30.2608 29.1579 30.3874 28.8398 30.3877Z" fill="#131542"/>
</svg>
