<svg width="32" height="33" viewBox="0 0 32 33" fill="none" xmlns="http://www.w3.org/2000/svg">
<path d="M12.5 16.9736H13.5V17.9736H12.5V16.9736Z" fill="#131542"/>
<path d="M18.75 17.2236H19.25V17.7236H18.75V17.2236Z" fill="#131542" stroke="#131542" stroke-width="0.5"/>
<path d="M4.5 19.4736H5.5V20.4736H4.5V19.4736Z" fill="#131542"/>
<path d="M6.5 19.4736H7.5V20.4736H6.5V19.4736Z" fill="#131542"/>
<path d="M30.5 15.474H29.5V12.474C29.576 12.474 29.651 12.4567 29.7193 12.4234C29.7876 12.39 29.8474 12.3416 29.8942 12.2816C29.9409 12.2217 29.9734 12.1519 29.9891 12.0776C30.0049 12.0032 30.0035 11.9263 29.985 11.8525L29.485 9.85254C29.4579 9.74442 29.3955 9.64844 29.3076 9.57987C29.2197 9.51129 29.1115 9.47404 29 9.47404H23.5V4.97404C23.5 4.22404 22.523 3.67654 22.2235 3.52654L22 3.41504L21.7765 3.52654C21.477 3.67654 20.5 4.22404 20.5 4.97404V5.97404H16.5V3.97404H15.5V5.97404H11.5V4.97404C11.5 4.22404 10.523 3.67654 10.2235 3.52654L10 3.41504L9.7765 3.52654C9.477 3.67654 8.5 4.22404 8.5 4.97404V9.47404H3C2.88854 9.47404 2.78027 9.51129 2.6924 9.57987C2.60452 9.64844 2.54209 9.74442 2.515 9.85254L2.015 11.8525C1.99653 11.9263 1.99511 12.0032 2.01085 12.0776C2.02659 12.1519 2.05907 12.2217 2.10583 12.2816C2.15259 12.3416 2.21239 12.39 2.28069 12.4234C2.34899 12.4567 2.424 12.474 2.5 12.474V15.474H1.5C1.36739 15.474 1.24021 15.5267 1.14645 15.6205C1.05268 15.7143 1 15.8414 1 15.974V17.974C1 18.1066 1.05268 18.2338 1.14645 18.3276C1.24021 18.4214 1.36739 18.474 1.5 18.474H2.5V26.474H1V29.474H31V26.474H29.5V18.474H30.5C30.6326 18.474 30.7598 18.4214 30.8536 18.3276C30.9473 18.2338 31 18.1066 31 17.974V15.974C31 15.8414 30.9473 15.7143 30.8536 15.6205C30.7598 15.5267 30.6326 15.474 30.5 15.474ZM23.5 10.474H28.6095L28.8595 11.474H23.5V10.474ZM23.5 12.474H28.5V15.474H23.5V12.474ZM23.5 18.474H28.5V26.474H27.5V23.974C27.5 23.5762 27.342 23.1947 27.0607 22.9134C26.7794 22.6321 26.3978 22.474 26 22.474C25.6022 22.474 25.2206 22.6321 24.9393 22.9134C24.658 23.1947 24.5 23.5762 24.5 23.974V26.474H23.5V18.474ZM26.5 23.974V26.474H25.5V23.974C25.5 23.8414 25.5527 23.7143 25.6464 23.6205C25.7402 23.5267 25.8674 23.474 26 23.474C26.1326 23.474 26.2598 23.5267 26.3536 23.6205C26.4473 23.7143 26.5 23.8414 26.5 23.974ZM22 4.54854C22.1942 4.65443 22.3644 4.79929 22.5 4.97404V6.47404H21.5V5.97404V4.99604C21.6294 4.80983 21.8006 4.65656 22 4.54854ZM21.5 13.474V11.974H22.5V13.474H21.5ZM22.5 14.474V26.474H21.5V14.474H22.5ZM21.5 10.974V9.97404H22.5V10.974H21.5ZM21.5 8.97404V7.47404H22.5V8.97404H21.5ZM11.5 6.97404H20.5V7.97404H11.5V6.97404ZM11.5 8.97404H20.5V11.974H11.5V8.97404ZM20.5 12.974V14.974H19.5V12.974H20.5ZM18.5 12.974V14.974H17.5V12.974H18.5ZM16.5 12.974V14.974H15.5V12.974H16.5ZM14.5 12.974V14.974H13.5V12.974H14.5ZM11.5 12.974H12.5V14.974H11.5V12.974ZM10 4.54854C10.1942 4.65443 10.3644 4.79929 10.5 4.97404V6.47404H9.5V4.99604C9.62938 4.80983 9.80064 4.65656 10 4.54854ZM9.5 13.474V11.974H10.5V13.474H9.5ZM10.5 14.474V26.474H9.5V14.474H10.5ZM9.5 10.974V9.97404H10.5V10.974H9.5ZM9.5 8.97404V7.47404H10.5V8.97404H9.5ZM3.3905 10.474H8.5V11.474H3.1405L3.3905 10.474ZM8.5 12.474V15.474H3.5V12.474H8.5ZM2 17.474V16.474H8.5V17.474H2ZM6 22.474C5.60218 22.474 5.22064 22.6321 4.93934 22.9134C4.65804 23.1947 4.5 23.5762 4.5 23.974V26.474H3.5V18.474H8.5V26.474H7.5V23.974C7.5 23.5762 7.34196 23.1947 7.06066 22.9134C6.77936 22.6321 6.39782 22.474 6 22.474ZM6.5 23.974V26.474H5.5V23.974C5.5 23.8414 5.55268 23.7143 5.64645 23.6205C5.74021 23.5267 5.86739 23.474 6 23.474C6.13261 23.474 6.25979 23.5267 6.35355 23.6205C6.44732 23.7143 6.5 23.8414 6.5 23.974ZM12 28.474H2V27.474H12V28.474ZM19 28.474H13V27.474H19V28.474ZM14 26.474V20.474C14 20.0865 15.0075 19.2015 16 18.563C16.9925 19.2015 18 20.0865 18 20.474V26.474H14ZM16.2575 17.5455L16 17.391L15.7425 17.5455C15.1 17.9315 13 19.2835 13 20.474V26.474H11.5V15.974H20.5V26.474H19V20.474C19 19.2835 16.9 17.9315 16.2575 17.5455ZM30 27.474V28.474H20V27.474H30ZM30 17.474H23.5V16.474H30V17.474Z" fill="#131542"/>
<path d="M26.5 19.4736H27.5V20.4736H26.5V19.4736Z" fill="#131542"/>
<path d="M24.5 19.4736H25.5V20.4736H24.5V19.4736Z" fill="#131542"/>
<path d="M14.5 9.97363H15.5V10.9736H14.5V9.97363Z" fill="#131542"/>
<path d="M16.5 9.97363H17.5V10.9736H16.5V9.97363Z" fill="#131542"/>
<path d="M18.5 9.97363H19.5V10.9736H18.5V9.97363Z" fill="#131542"/>
<path d="M12.5 9.97363H13.5V10.9736H12.5V9.97363Z" fill="#131542"/>
<path d="M6.5 13.4736H7.5V14.4736H6.5V13.4736Z" fill="#131542"/>
<path d="M4.5 13.4736H5.5V14.4736H4.5V13.4736Z" fill="#131542"/>
<path d="M24.5 13.4736H25.5V14.4736H24.5V13.4736Z" fill="#131542"/>
<path d="M26.5 13.4736H27.5V14.4736H26.5V13.4736Z" fill="#131542"/>
</svg>
